if (_typeface_js && _typeface_js.loadFace) _typeface_js.loadFace({"glyphs":{"S":{"x_min":44.453125,"x_max":673.9375,"ha":622,"o":"m 333 766 q 330 802 329 787 q 345 843 331 829 q 394 847 363 858 q 427 811 413 840 q 441 759 436 790 q 444 711 445 733 q 441 691 444 698 q 429 673 437 677 q 365 663 409 662 q 305 673 326 665 q 256 711 269 686 q 262 759 244 738 q 333 766 287 787 m 500 188 q 534 208 519 201 q 576 211 559 218 q 601 168 598 201 q 583 125 602 148 q 543 90 568 108 q 500 65 520 73 q 479 59 488 61 q 456 63 465 58 q 416 133 431 81 q 406 211 400 181 q 438 254 416 245 q 480 240 462 263 q 500 188 497 220 m 590 811 q 511 873 561 854 q 406 888 462 893 q 301 857 351 884 q 222 786 251 829 q 198 716 195 747 q 259 633 202 673 q 402 551 286 615 q 486 504 452 526 q 561 447 520 481 q 627 370 601 413 q 663 276 652 327 q 669 143 680 188 q 574 19 650 61 q 401 -26 498 -22 q 222 0 308 -29 q 94 84 136 29 q 61 152 72 113 q 46 220 48 193 q 44 291 44 248 q 52 309 44 301 q 69 316 59 316 q 86 309 79 316 q 94 291 94 301 q 102 188 94 230 q 133 115 109 147 q 241 46 166 72 q 400 23 316 20 q 546 60 486 26 q 622 154 607 94 q 613 265 630 188 q 538 400 598 347 q 379 508 479 454 q 230 591 258 572 q 148 711 154 645 q 180 813 144 759 q 276 900 216 868 q 402 938 336 933 q 531 919 470 944 q 632 838 593 894 q 635 820 637 830 q 625 804 633 809 q 606 800 616 798 q 590 811 595 802 m 355 711 q 320 736 336 729 q 297 741 304 743 q 287 737 290 740 q 287 726 283 733 q 316 704 293 712 q 366 697 333 698 q 409 701 395 695 q 411 712 411 705 q 408 755 412 732 q 397 798 404 780 q 383 816 390 813 q 373 818 377 818 q 369 818 369 819 l 368 818 q 363 801 363 813 q 372 744 362 776 q 373 738 373 741 l 377 733 q 378 710 390 722 q 355 711 366 698 m 461 147 q 466 190 469 172 q 455 219 463 208 l 450 223 q 440 202 444 220 q 447 143 434 183 q 475 93 459 105 q 487 95 479 93 q 523 118 504 102 q 556 147 544 131 q 568 165 568 159 q 566 175 568 170 q 563 179 565 179 l 562 180 q 547 177 558 181 q 498 144 525 168 q 494 141 497 143 l 491 136 q 470 125 486 119 q 461 147 454 131 "},"/":{"x_min":41.828125,"x_max":558.09375,"ha":504,"o":"m 556 983 q 422 620 511 836 q 275 266 279 277 q 211 115 263 241 q 136 -79 159 -11 q 115 -156 129 -101 q 90 -238 101 -208 q 76 -252 86 -248 q 56 -252 66 -255 q 43 -238 47 -248 q 43 -219 40 -229 q 66 -144 54 -193 q 88 -62 80 -86 q 165 133 113 8 q 227 286 218 259 l 375 640 q 509 997 465 859 q 521 1012 512 1008 q 541 1013 530 1016 q 555 1002 551 1011 q 556 983 559 993 "},"K":{"x_min":45.84375,"x_max":726.109375,"ha":675,"o":"m 202 711 q 231 732 216 725 q 273 737 254 743 q 305 702 297 732 q 297 658 312 684 q 265 616 286 637 q 227 583 245 595 q 209 572 218 576 q 187 572 197 568 q 133 632 161 584 q 108 708 106 679 q 129 754 109 740 q 173 752 150 768 q 202 711 193 740 m 212 145 q 209 181 208 166 q 225 222 211 208 q 273 226 243 237 q 306 190 293 219 q 320 138 315 169 q 323 90 325 112 q 320 70 323 77 q 308 52 316 56 q 244 43 288 41 q 184 52 205 44 q 136 90 148 65 q 141 138 123 118 q 212 145 166 166 m 587 883 l 545 825 q 495 765 523 797 l 451 713 q 398 657 433 693 l 348 607 l 295 552 l 245 502 q 172 437 227 484 l 147 416 l 155 409 q 216 362 177 391 l 401 233 q 711 37 658 58 q 724 23 720 33 q 724 4 727 13 q 711 -9 720 -5 q 691 -9 701 -12 q 373 191 634 15 l 187 322 q 123 370 145 352 l 113 379 q 123 19 123 158 q 115 2 123 9 q 98 -5 108 -5 q 81 2 88 -5 q 73 19 73 9 q 59 457 73 165 q 45 897 45 750 q 53 914 45 907 q 70 922 61 922 q 88 914 80 922 q 95 897 95 907 q 109 450 95 751 l 140 476 q 209 538 193 522 l 259 588 l 313 643 l 362 691 q 413 747 397 726 l 456 797 q 505 855 484 827 l 545 911 q 561 921 551 919 q 580 918 572 923 q 591 902 588 912 q 587 883 593 891 m 173 655 q 171 700 177 682 q 155 725 165 718 q 148 726 150 727 q 141 705 143 722 q 162 648 140 687 q 198 604 181 615 q 209 609 202 605 q 240 638 225 620 q 268 673 258 657 q 275 694 276 688 q 265 705 270 704 q 245 701 258 707 q 223 684 233 695 q 212 666 213 673 q 208 658 211 661 q 206 650 206 654 q 187 636 204 633 q 173 655 170 638 m 234 90 q 199 115 215 108 q 176 120 183 122 q 166 116 169 119 q 166 105 162 112 q 195 83 172 91 q 245 76 212 77 q 288 79 280 75 q 290 91 290 83 q 287 134 291 111 q 276 177 283 159 q 262 195 269 193 q 252 197 256 197 q 248 197 248 198 l 247 197 q 243 180 243 193 q 251 123 241 155 q 252 118 252 120 l 256 112 q 257 89 269 101 q 234 90 245 77 "},"7":{"x_min":56.6875,"x_max":640.328125,"ha":585,"o":"m 147 -54 q 156 -20 151 -34 q 184 11 168 4 q 233 -1 208 20 q 251 -45 248 -15 q 247 -98 252 -69 q 231 -145 240 -126 q 220 -163 226 -156 q 202 -176 212 -175 q 140 -162 181 -179 q 87 -131 104 -145 q 56 -79 58 -106 q 80 -36 54 -48 q 147 -54 113 -20 m 133 663 q 237 670 147 663 q 387 682 327 677 q 536 686 481 687 q 591 683 570 686 q 612 679 602 682 q 632 666 625 675 q 640 644 640 658 q 637 632 640 638 q 629 602 636 620 q 594 526 618 573 q 558 451 580 495 l 531 401 l 436 194 q 356 8 404 125 q 277 -205 308 -108 q 265 -219 275 -215 q 246 -220 256 -223 q 231 -209 236 -218 q 230 -188 227 -200 q 310 27 262 -91 q 390 215 358 145 l 487 423 q 511 472 488 427 l 550 548 q 581 620 572 594 q 586 633 584 627 l 584 633 q 536 636 566 636 q 390 632 481 637 q 239 620 330 627 q 136 613 148 613 q 117 620 125 613 q 109 638 109 627 q 116 656 109 648 q 133 663 123 663 m 147 -115 q 125 -79 137 -91 q 105 -65 112 -66 q 94 -66 98 -65 q 90 -76 88 -69 q 109 -106 91 -90 q 152 -131 122 -118 q 194 -143 181 -143 q 201 -131 197 -138 q 213 -91 209 -115 q 218 -48 219 -66 q 211 -26 216 -30 q 197 -19 201 -18 q 187 -33 193 -22 q 176 -90 177 -56 q 175 -95 176 -93 l 177 -101 q 169 -123 184 -116 q 147 -115 154 -130 "},"d":{"x_min":31.875,"x_max":567.71875,"ha":563,"o":"m 351 201 q 380 225 366 216 q 420 236 402 240 q 454 198 444 230 q 444 151 459 179 q 411 109 431 130 q 372 77 391 90 q 355 69 362 72 q 333 68 343 63 q 288 113 313 76 q 259 168 266 147 q 262 229 250 204 q 305 252 276 256 q 351 201 341 248 m 562 993 q 543 272 527 701 q 544 229 543 261 q 546 184 545 197 q 548 145 547 172 q 552 102 550 118 q 558 63 554 86 q 566 22 562 41 q 564 2 569 11 q 549 -9 559 -6 q 529 -6 538 -11 q 519 8 520 -1 q 501 112 506 55 q 402 18 461 48 q 277 -9 343 -12 q 122 50 191 -6 q 36 204 54 108 q 43 347 25 266 q 101 500 59 429 q 209 622 145 576 q 350 659 273 666 q 398 653 383 655 q 441 641 413 651 q 488 615 469 632 q 512 998 491 822 q 522 1016 513 1009 q 541 1020 530 1022 q 557 1011 551 1019 q 562 993 563 1002 m 487 458 q 484 487 486 469 l 483 513 q 472 555 480 541 q 428 594 456 584 q 344 609 400 604 q 235 578 287 615 q 144 475 183 541 q 90 338 106 411 q 86 212 75 266 q 154 89 100 136 q 279 40 209 43 q 409 82 350 37 q 494 223 469 127 l 494 225 q 493 269 493 261 q 488 456 488 370 q 487 458 487 456 m 319 150 q 320 193 325 177 q 310 214 315 209 q 301 219 305 219 q 291 213 295 220 q 293 176 284 201 q 316 133 297 161 q 344 100 333 108 q 354 105 348 102 q 387 133 370 116 q 415 168 405 151 q 420 190 423 183 q 417 199 419 195 q 413 202 415 202 l 413 204 q 398 197 408 204 q 358 155 377 183 l 354 151 q 352 144 352 148 q 333 130 350 127 q 319 150 316 133 "},",":{"x_min":50,"x_max":171.375,"ha":188,"o":"m 102 133 q 166 25 154 87 q 158 -96 179 -37 q 91 -197 137 -155 q 74 -204 84 -204 q 56 -196 63 -204 q 50 -178 50 -188 q 58 -161 50 -168 q 120 -32 115 -106 q 69 94 126 41 q 61 111 62 101 q 67 129 61 122 q 84 138 73 137 q 102 133 94 138 "},"Y":{"x_min":32.078125,"x_max":676.3125,"ha":624,"o":"m 355 650 q 376 680 365 668 q 412 702 394 701 q 454 676 437 705 q 455 630 463 659 q 434 581 448 608 q 405 538 420 555 q 391 525 398 530 q 369 518 380 516 q 313 551 348 522 q 273 598 284 579 q 262 657 254 630 q 297 690 269 686 q 355 650 333 694 m 672 880 q 537 630 636 825 l 222 12 q 208 0 218 2 q 188 1 198 -2 q 176 15 179 5 q 177 34 173 25 l 351 375 l 252 529 l 130 729 l 36 886 q 32 904 30 894 q 43 919 34 913 q 62 922 52 925 q 77 911 72 920 l 169 761 l 283 575 l 376 425 l 493 652 q 630 908 595 854 q 646 918 636 916 q 665 915 657 920 q 675 899 673 909 q 672 880 677 888 m 336 594 q 325 635 333 619 q 311 654 316 651 q 301 657 305 657 q 294 648 295 655 q 301 615 290 634 q 336 576 311 600 q 372 551 358 556 q 380 561 376 555 q 405 597 393 575 q 423 638 418 620 q 426 659 427 655 q 420 666 423 663 q 416 669 418 669 q 401 658 411 669 q 372 609 381 637 q 368 602 370 605 q 369 597 369 600 q 354 579 370 580 q 336 594 337 577 "},"E":{"x_min":40.28125,"x_max":682,"ha":631,"o":"m 545 163 q 543 200 541 184 q 558 240 544 226 q 607 244 576 255 q 640 208 626 237 q 654 156 648 187 q 657 108 658 130 q 654 88 657 95 q 641 70 650 75 q 577 61 622 59 q 518 70 538 62 q 469 108 481 83 q 475 156 456 136 q 545 163 500 184 m 216 647 q 250 658 234 655 q 293 651 276 662 q 308 604 312 637 q 279 565 305 583 q 231 540 261 551 q 184 526 206 530 q 165 525 173 525 q 144 533 151 526 q 122 594 130 550 q 118 655 115 633 q 145 709 123 693 q 194 713 169 727 q 216 647 226 695 m 106 511 q 261 512 158 511 q 416 513 365 513 q 434 506 426 513 q 441 488 441 498 q 434 471 441 479 q 416 463 426 463 q 261 462 365 463 q 106 461 158 461 l 104 461 q 118 50 116 186 q 223 48 158 51 q 347 47 315 47 q 450 50 381 47 q 554 53 519 52 q 658 52 590 54 q 675 45 668 52 q 682 27 682 37 q 674 9 682 16 q 655 2 666 2 q 553 3 588 4 q 450 0 518 2 q 347 -2 383 -2 q 222 -1 315 -2 q 105 -1 148 1 q 93 -4 100 -4 q 75 3 83 -4 q 68 20 68 11 q 54 458 68 166 q 40 895 40 750 l 40 898 q 47 916 40 908 q 65 923 55 923 q 76 920 70 923 q 324 918 158 920 q 575 915 490 915 q 592 907 584 915 q 600 890 600 900 q 592 872 600 880 q 575 865 584 865 q 328 868 490 865 q 90 870 166 870 q 101 511 91 737 l 106 511 m 568 108 q 532 133 548 126 q 509 138 516 140 q 500 134 502 137 q 500 123 495 130 q 529 101 505 109 q 579 94 545 95 q 622 97 613 93 q 623 109 623 101 q 620 152 625 129 q 609 195 616 177 q 595 213 602 211 q 586 215 590 215 q 581 215 581 216 l 580 215 q 576 198 576 211 q 584 141 575 173 q 586 136 586 138 l 590 130 q 591 107 602 119 q 568 108 579 95 m 165 615 q 182 653 179 636 q 183 677 186 670 q 177 684 180 683 q 165 683 172 688 q 151 650 154 675 q 155 600 148 634 q 165 558 161 568 l 166 558 q 179 559 170 558 q 220 570 198 562 q 259 591 244 580 q 275 609 273 602 q 275 619 276 616 q 275 623 275 622 l 273 625 q 255 625 269 627 q 201 604 230 620 q 197 601 198 602 l 193 595 q 169 591 183 581 q 165 615 155 601 "},"y":{"x_min":-42.78125,"x_max":576.15625,"ha":551,"o":"m 275 561 q 304 581 290 575 q 345 588 327 594 q 376 551 368 583 q 363 504 380 530 q 327 465 350 484 q 287 436 306 447 q 269 427 277 430 q 247 427 256 423 q 205 476 227 438 q 181 533 187 511 q 188 594 175 570 q 233 613 205 620 q 275 561 268 607 m 101 -70 q 130 -50 116 -56 q 172 -43 154 -37 q 202 -81 195 -48 q 188 -127 206 -102 q 151 -166 175 -147 q 109 -195 130 -184 q 91 -202 100 -201 q 69 -201 79 -206 q 48 -180 59 -195 q 29 -151 38 -169 q 5 -95 9 -116 q 13 -34 -1 -58 q 58 -13 30 -8 q 101 -70 94 -22 m 575 609 q 469 319 540 504 q 434 222 463 305 q 375 65 405 138 q 312 -66 345 -6 q -26 -265 163 -331 q -40 -252 -36 -262 q -41 -233 -44 -243 q -29 -219 -38 -223 q -9 -218 -19 -215 q 268 -43 141 -270 q 312 45 290 -2 q 291 84 301 65 l 270 127 q 252 166 259 151 l 236 211 q 220 250 223 240 q 203 295 216 261 q 188 336 190 329 q 55 611 119 520 q 52 629 50 619 q 62 645 54 638 q 80 649 70 651 q 97 638 90 647 q 234 352 163 544 q 337 105 304 170 q 386 238 358 156 q 422 336 415 319 q 527 626 493 520 q 539 640 530 636 q 559 641 548 644 q 573 629 569 638 q 575 609 577 620 m 238 511 q 242 553 245 537 q 234 575 238 569 q 226 581 230 580 q 218 577 220 583 q 215 538 209 565 q 234 493 218 522 q 259 459 248 469 q 270 465 265 461 q 305 490 287 475 q 336 522 325 506 q 343 543 344 536 q 336 556 340 555 q 320 552 330 558 q 276 513 298 540 l 273 511 q 272 502 272 506 q 252 491 268 487 q 238 511 236 494 m 63 -118 q 68 -75 72 -91 q 60 -54 65 -59 q 51 -47 55 -48 q 41 -52 45 -45 q 38 -90 33 -65 q 58 -136 41 -104 q 75 -161 66 -151 q 81 -170 81 -169 q 94 -165 87 -169 q 130 -141 111 -156 q 161 -109 150 -125 q 169 -87 170 -94 q 166 -78 168 -81 q 163 -75 165 -75 q 145 -79 158 -73 q 101 -116 125 -91 l 98 -119 q 97 -126 97 -122 q 76 -138 93 -143 q 63 -118 59 -134 "},"\"":{"x_min":156.421875,"x_max":477.6875,"ha":418,"o":"m 227 982 q 208 679 200 868 q 201 660 208 668 q 184 652 194 652 q 165 659 173 652 q 158 676 158 666 q 177 993 150 873 q 189 1008 180 1002 q 208 1011 198 1013 q 223 1000 218 1009 q 227 982 229 991 m 473 957 q 454 825 452 925 q 469 676 454 737 q 465 657 470 666 q 450 646 459 648 q 431 650 440 644 q 419 665 422 655 q 404 825 404 732 q 431 984 402 938 q 447 995 437 993 q 466 991 458 997 q 477 975 475 986 q 473 957 479 965 "},"g":{"x_min":25.96875,"x_max":505.9375,"ha":521,"o":"m 291 445 q 288 481 288 465 q 304 520 290 508 q 354 525 323 537 q 384 490 372 518 q 400 440 394 469 q 404 390 405 412 q 401 370 404 379 q 387 351 397 356 q 325 341 368 343 q 262 350 283 341 q 216 390 227 363 q 222 438 204 418 q 291 445 247 466 m 255 -123 q 284 -148 273 -136 q 301 -186 302 -168 q 270 -225 301 -211 q 222 -222 251 -233 q 176 -197 201 -213 q 140 -163 154 -180 q 127 -147 131 -155 q 123 -126 120 -136 q 173 -63 131 -97 q 244 -29 215 -31 q 294 -44 280 -26 q 297 -88 311 -62 q 255 -123 284 -111 m 408 483 q 331 566 379 545 q 229 569 283 587 q 134 504 176 551 q 81 394 93 456 q 101 216 63 297 q 202 102 137 137 q 319 91 265 68 q 413 211 383 118 q 423 223 416 219 l 422 236 q 418 329 418 273 q 416 418 418 397 q 411 476 416 422 q 408 483 409 479 m 463 579 q 459 529 459 540 q 462 477 458 518 l 466 420 q 468 329 468 398 q 472 241 468 275 q 481 164 475 213 q 493 77 488 115 q 502 -6 498 38 q 505 -97 506 -52 q 497 -179 504 -141 q 418 -291 481 -258 q 287 -308 363 -319 q 156 -263 219 -300 q 65 -177 93 -226 q 63 -158 61 -168 q 75 -143 66 -148 q 94 -141 84 -138 q 109 -152 104 -144 q 183 -220 130 -190 q 294 -259 236 -251 q 394 -247 354 -268 q 447 -170 437 -225 q 455 -99 454 -136 q 453 -18 456 -62 q 446 54 450 26 q 436 136 443 83 q 338 45 398 69 q 179 58 261 13 q 56 195 100 101 q 31 402 12 290 q 96 537 45 479 q 213 616 147 595 q 318 622 263 634 q 411 568 372 611 q 414 589 412 579 q 425 605 416 600 q 443 609 433 611 q 459 598 454 607 q 463 579 465 590 m 312 388 q 278 414 294 406 q 256 420 262 422 q 247 416 250 419 q 247 404 243 412 q 276 380 252 390 q 325 375 288 375 q 369 380 355 375 q 370 393 370 384 q 368 434 372 411 q 355 476 362 459 q 343 494 347 491 q 333 496 337 495 q 327 497 329 497 l 326 495 q 322 479 323 493 q 331 422 320 452 q 333 415 333 419 l 337 411 q 336 388 348 400 q 312 388 325 376 m 202 -100 q 244 -92 226 -101 q 268 -72 262 -83 l 269 -65 q 247 -62 265 -61 q 194 -90 227 -63 q 156 -131 165 -113 q 165 -141 159 -136 q 195 -169 177 -155 q 234 -191 216 -184 q 256 -194 250 -197 q 265 -189 262 -191 q 268 -186 268 -187 l 268 -184 q 259 -170 269 -180 q 213 -137 243 -151 q 208 -133 211 -136 l 202 -133 q 190 -128 195 -133 q 186 -116 186 -123 q 190 -104 186 -109 q 202 -100 195 -100 "},"e":{"x_min":24.828125,"x_max":522.34375,"ha":556,"o":"m 472 398 q 468 430 473 411 q 461 447 465 438 q 455 466 458 456 q 451 477 452 475 q 370 577 429 544 q 245 597 312 609 q 133 531 177 586 q 77 387 86 473 q 291 384 234 384 q 425 390 377 386 q 466 397 452 393 q 472 398 469 398 m 75 337 q 106 169 75 226 q 190 81 138 112 q 298 51 243 50 q 402 84 355 51 q 470 181 448 118 q 484 195 475 191 q 502 196 493 200 q 516 184 512 193 q 518 165 520 175 q 431 43 490 86 q 300 1 372 1 q 165 38 229 0 q 62 144 101 76 q 25 350 22 216 q 94 562 26 480 q 236 647 151 632 q 395 620 320 662 q 498 494 469 579 q 502 481 500 491 l 511 462 q 515 444 513 452 q 518 375 527 400 q 500 356 512 363 q 480 348 491 352 q 430 340 462 344 q 291 334 380 336 q 75 337 238 334 m 229 191 q 241 227 234 213 q 270 258 252 251 q 318 244 293 265 q 336 198 334 230 q 329 145 336 175 q 312 98 322 119 l 302 81 q 284 69 294 70 q 250 76 269 68 q 237 81 247 77 q 227 87 230 86 q 152 140 173 106 q 150 200 131 173 q 204 211 169 227 q 229 191 218 204 m 229 131 q 190 180 211 170 q 176 180 180 184 q 180 158 172 172 q 238 118 195 134 q 252 112 244 116 q 263 106 262 106 q 268 104 265 105 l 272 102 q 275 101 273 101 q 281 113 277 105 q 295 154 290 130 q 302 197 302 179 q 295 219 301 213 q 281 226 286 227 q 270 213 276 225 q 258 156 261 191 q 256 151 258 154 l 259 145 q 251 123 266 130 q 229 131 236 116 "},"J":{"x_min":28.125,"x_max":611.15625,"ha":560,"o":"m 266 161 q 302 177 286 173 q 344 179 327 186 q 368 134 366 168 q 347 94 368 116 q 305 62 330 77 q 261 38 281 45 q 240 34 248 34 q 218 40 226 33 q 180 109 194 58 q 176 188 166 161 q 206 229 186 220 q 248 218 230 238 q 266 161 268 197 m 204 923 q 329 916 286 915 q 455 921 372 916 q 586 926 538 926 q 603 918 595 926 q 611 901 611 911 q 603 884 611 891 q 586 876 595 876 q 422 869 551 876 q 443 472 438 745 q 440 229 445 330 q 418 77 434 111 q 318 -15 386 11 q 179 -22 250 -43 q 68 58 108 -2 q 44 102 54 79 q 32 156 36 126 q 28 201 29 186 q 28 253 27 216 q 29 295 29 290 q 36 313 29 305 q 54 320 44 320 q 71 313 63 320 q 79 295 79 305 q 78 250 79 287 q 78 202 77 213 q 81 163 79 190 q 91 120 84 137 q 109 86 98 102 q 193 25 140 40 q 298 29 247 9 q 373 100 350 50 q 390 231 384 123 q 393 470 395 327 q 372 866 387 752 q 195 873 268 863 q 179 883 186 875 q 175 902 173 891 q 184 918 176 912 q 204 923 193 925 m 225 122 q 233 170 234 152 q 225 195 231 187 q 219 198 220 198 q 206 177 212 195 q 212 119 201 159 q 236 66 222 80 l 237 66 l 250 70 q 287 90 266 76 q 323 118 309 104 q 334 134 334 129 q 330 148 334 147 q 312 147 325 151 q 263 118 287 138 q 258 115 261 115 q 255 108 256 111 q 233 100 248 93 q 225 122 218 106 "},"|":{"x_min":68.0625,"x_max":138.90625,"ha":142,"o":"m 118 986 q 138 275 138 484 q 133 11 138 230 q 134 -251 127 -206 q 127 -270 134 -262 q 110 -277 120 -277 q 92 -270 100 -277 q 84 -254 84 -263 q 83 11 77 -209 q 88 275 88 231 q 68 983 88 484 q 75 1002 68 994 q 92 1009 81 1009 q 110 1002 102 1009 q 118 986 118 995 "},"^":{"x_min":73.609375,"x_max":631.875,"ha":581,"o":"m 81 568 q 97 587 91 577 q 107 604 104 597 q 118 627 111 611 l 130 657 q 281 908 193 793 l 281 909 q 286 919 286 918 q 297 932 290 927 q 326 937 309 943 q 356 912 338 933 q 387 870 369 897 l 465 751 q 550 626 518 670 q 620 548 594 566 q 631 532 629 543 q 627 513 633 522 q 611 503 622 505 q 593 506 601 501 q 509 597 561 529 q 422 725 473 645 l 345 843 q 320 877 330 865 q 175 634 236 766 l 165 611 q 153 582 158 593 q 138 558 148 572 q 115 531 129 544 q 97 525 108 525 q 80 532 87 525 q 73 550 73 540 q 81 568 73 561 "},"q":{"x_min":28.078125,"x_max":617,"ha":546,"o":"m 297 258 q 294 294 293 279 q 309 334 295 320 q 358 338 327 350 q 391 302 377 331 q 405 251 400 281 q 408 202 409 225 q 405 183 408 190 q 393 165 401 169 q 329 155 373 154 q 269 165 290 156 q 220 202 233 177 q 226 251 208 230 q 297 258 251 279 m 426 476 q 311 600 376 586 q 194 551 255 611 q 100 389 133 490 q 84 202 66 288 q 146 89 98 130 q 252 45 194 48 q 352 74 306 43 q 418 168 398 105 q 422 261 419 201 q 426 345 423 280 q 426 475 429 401 l 426 476 m 468 643 q 472 543 469 616 q 477 443 476 469 q 476 343 477 416 q 472 268 475 318 q 469 198 470 219 q 472 179 475 188 q 468 159 470 169 q 469 -70 462 23 q 470 -88 469 -73 q 472 -106 472 -102 q 473 -125 472 -111 q 476 -144 475 -138 l 477 -161 q 481 -180 479 -173 l 486 -194 q 491 -209 488 -202 q 498 -222 494 -216 q 525 -250 515 -248 q 536 -241 529 -251 q 566 -161 555 -216 q 577 -144 569 -150 q 596 -140 586 -138 q 612 -151 607 -143 q 616 -169 618 -159 q 575 -273 602 -238 q 518 -299 550 -304 q 456 -250 486 -294 q 444 -227 450 -238 q 434 -200 438 -215 l 429 -175 q 426 -147 427 -165 l 423 -122 q 420 -95 422 -115 q 419 -73 419 -75 q 415 63 415 -11 q 250 -4 350 -8 q 113 52 175 0 q 34 191 52 104 q 52 404 15 293 q 159 586 90 516 q 320 648 238 665 q 420 583 376 637 q 418 640 419 616 q 425 659 418 651 q 442 666 431 666 q 460 659 452 666 q 468 643 468 652 m 319 202 q 284 227 300 220 q 261 233 268 234 q 251 229 254 231 q 251 218 247 225 q 280 195 256 204 q 330 188 297 190 q 373 191 365 187 q 375 204 375 195 q 372 247 376 223 q 361 290 368 272 q 347 308 354 305 q 337 310 341 309 q 333 309 333 311 l 331 309 q 327 293 327 305 q 336 236 326 268 q 337 230 337 233 l 341 225 q 342 202 354 213 q 319 202 330 190 "},"b":{"x_min":62.875,"x_max":592.28125,"ha":599,"o":"m 126 181 q 134 168 133 176 q 205 52 148 84 q 329 38 256 22 q 459 106 401 54 q 531 227 518 159 q 512 443 558 350 q 383 576 466 536 q 234 588 304 613 q 134 476 162 563 q 127 250 131 356 q 126 181 126 226 m 84 483 q 88 1004 88 663 q 96 1021 88 1013 q 113 1029 104 1029 q 131 1021 123 1029 q 138 1004 138 1013 q 136 581 138 730 q 218 636 170 619 q 405 620 306 668 q 557 465 504 573 q 581 216 611 356 q 494 70 563 133 q 340 -11 425 8 q 180 8 248 -30 q 125 59 147 27 q 111 -16 120 18 q 100 -31 109 -26 q 81 -34 91 -36 q 65 -22 70 -31 q 63 -2 61 -13 q 76 78 73 33 q 77 162 79 123 q 77 252 75 201 q 84 476 81 358 l 84 483 m 258 145 q 255 181 254 166 q 270 220 255 208 q 319 225 288 237 q 351 188 338 218 q 365 138 361 168 q 368 88 369 111 q 365 69 368 76 q 352 51 361 55 q 288 43 333 40 q 229 52 250 44 q 180 91 193 66 q 187 140 168 119 q 258 145 213 166 m 277 88 q 244 114 259 106 q 222 120 229 122 q 212 116 215 119 q 211 105 208 112 q 240 83 216 93 q 290 76 256 77 q 333 79 320 73 q 336 90 334 83 q 333 133 336 109 q 320 175 329 158 q 308 194 313 191 q 298 197 301 197 l 293 197 l 293 195 q 288 180 288 193 q 297 123 287 155 q 298 115 298 119 l 302 111 q 302 88 313 100 q 277 88 290 76 "},"D":{"x_min":80.5625,"x_max":715.59375,"ha":695,"o":"m 120 918 q 381 891 262 932 q 540 787 452 868 q 715 456 709 634 q 551 125 722 275 q 354 10 456 44 q 125 -16 251 -23 q 108 -8 115 -16 q 101 9 101 0 q 108 25 101 19 q 94 461 108 170 q 80 898 80 751 q 88 916 80 908 q 105 923 95 923 q 120 918 113 923 m 237 179 q 234 215 233 200 q 250 255 236 241 q 298 259 268 270 q 331 223 318 252 q 345 172 340 202 q 348 123 350 145 q 345 104 348 111 q 333 86 341 90 q 269 76 313 75 q 209 86 230 77 q 161 123 173 98 q 156 138 158 131 q 158 31 158 83 q 518 163 363 29 q 665 455 670 297 q 506 751 661 611 q 365 844 426 823 q 130 869 259 880 q 143 491 131 736 q 156 147 154 245 q 166 172 158 161 q 237 179 191 200 m 259 123 q 224 148 240 141 q 201 154 208 155 q 191 150 194 152 q 191 138 187 145 q 220 116 197 125 q 270 109 237 111 q 313 112 305 108 q 315 125 315 116 q 312 168 316 144 q 301 211 308 193 q 287 229 294 226 q 277 231 281 230 q 273 230 273 231 l 272 230 q 268 213 268 226 q 276 156 266 188 q 277 151 277 154 l 281 145 q 282 122 294 134 q 259 123 270 111 "},"z":{"x_min":40.1875,"x_max":541.578125,"ha":481,"o":"m 286 193 q 283 229 281 213 q 298 269 284 255 q 347 273 316 284 q 380 237 366 266 q 394 186 388 216 q 397 137 398 159 q 394 118 397 125 q 381 100 390 104 q 318 90 362 88 q 258 100 279 91 q 209 137 222 112 q 215 186 197 165 q 286 193 240 213 m 88 641 q 286 634 115 634 q 400 633 365 634 q 443 629 426 632 q 476 615 466 625 q 483 594 484 605 q 481 586 483 590 q 477 577 480 581 q 466 563 473 572 q 436 525 456 550 l 413 500 q 394 473 401 483 q 384 461 387 463 q 250 258 366 436 q 116 72 172 140 q 240 72 155 70 q 393 70 325 73 q 522 56 462 68 q 537 45 531 54 q 541 27 543 37 q 530 11 538 16 q 511 6 522 5 q 379 22 452 19 q 244 22 305 25 q 105 22 183 19 l 98 22 q 84 20 88 20 q 47 37 59 20 q 44 70 34 54 q 56 83 48 77 q 61 87 58 84 l 65 90 l 66 91 q 208 286 125 159 q 343 488 325 463 q 397 556 344 490 l 418 581 q 397 583 408 581 q 286 584 363 584 q 75 594 109 584 q 60 604 65 595 q 57 624 55 613 q 68 639 59 634 q 88 641 77 644 m 308 137 q 272 162 288 155 q 250 168 256 169 q 240 163 243 166 q 240 152 236 159 q 269 130 245 138 q 319 123 286 125 q 362 126 354 122 q 363 138 363 130 q 361 181 365 158 q 350 225 356 206 q 336 243 343 240 q 326 245 330 244 q 322 244 322 245 l 320 244 q 316 227 316 240 q 325 170 315 202 q 326 165 326 168 l 330 159 q 331 136 343 148 q 308 137 319 125 "},"w":{"x_min":47.359375,"x_max":791.453125,"ha":739,"o":"m 456 91 q 444 126 448 111 q 447 168 437 151 q 493 187 459 188 q 534 162 513 186 q 562 118 550 144 q 580 70 575 93 q 583 51 583 59 q 576 30 583 37 q 550 13 568 22 q 518 4 537 8 q 459 -5 480 -5 q 401 16 420 -4 q 393 63 380 38 q 456 91 408 98 m 93 650 q 131 576 112 619 q 170 470 151 533 l 200 375 q 229 267 209 343 q 250 187 250 191 q 256 158 254 173 q 343 419 281 245 l 388 543 l 404 581 q 409 593 408 588 q 413 598 412 597 q 419 604 416 602 q 440 609 429 612 q 452 601 447 607 l 456 597 q 459 591 458 595 q 465 579 462 587 l 480 540 l 525 422 q 593 220 580 265 q 620 141 607 177 q 619 168 620 143 q 622 237 618 205 q 627 266 623 243 l 638 315 l 654 390 q 679 472 663 430 q 713 563 694 515 l 743 640 q 756 654 747 650 q 775 654 765 658 q 788 642 784 651 q 790 623 793 633 q 759 544 779 593 q 726 456 740 495 q 704 379 712 418 l 687 305 l 676 256 q 672 231 672 234 q 669 169 668 204 q 669 101 670 126 l 669 87 l 669 69 q 654 23 669 40 q 632 13 645 13 q 609 26 619 13 q 602 44 605 31 q 600 54 601 50 q 599 62 600 59 q 598 66 598 65 q 545 206 568 130 q 477 405 531 250 l 434 522 l 390 402 q 304 143 327 227 q 298 112 302 134 l 290 68 l 281 27 q 276 12 279 18 q 268 1 272 5 q 237 -1 252 -9 q 219 36 218 9 q 220 47 220 43 l 220 50 q 202 173 211 141 l 181 255 q 152 363 161 333 q 123 454 143 394 q 86 554 104 515 q 51 622 69 594 q 47 641 45 630 q 58 656 50 651 q 77 660 66 662 q 93 650 87 658 m 494 44 q 453 59 470 56 q 430 57 436 61 q 423 50 425 54 q 426 38 420 44 q 459 27 436 27 q 509 36 476 27 q 537 44 526 40 q 550 51 545 48 q 547 63 550 55 q 533 104 543 81 q 509 140 522 126 q 490 154 498 154 q 481 153 484 154 q 476 152 477 152 l 476 151 q 476 134 473 147 q 502 81 483 108 q 504 77 504 80 l 511 75 q 517 52 525 66 q 494 44 509 37 "},"$":{"x_min":38.171875,"x_max":641.828125,"ha":589,"o":"m 376 476 q 366 809 369 682 q 240 765 294 801 q 170 670 187 729 q 165 616 163 645 q 177 575 166 587 q 197 556 187 565 q 223 541 208 548 l 248 529 q 281 516 258 525 q 311 505 304 508 q 376 476 344 491 m 427 386 q 437 20 436 148 q 534 73 500 38 q 566 181 576 113 q 427 386 551 300 m 559 634 q 576 751 611 704 q 452 808 543 797 q 416 811 434 811 q 426 447 419 679 q 616 187 595 343 q 570 37 629 94 q 438 -30 522 -9 q 440 -208 440 -125 q 432 -225 440 -218 q 415 -233 425 -233 q 397 -225 405 -233 q 390 -208 390 -218 q 388 -40 390 -129 q 236 -31 306 -50 q 140 18 186 -19 q 66 106 94 56 q 38 214 37 154 q 80 320 38 275 q 97 329 87 329 q 115 322 106 329 q 123 305 123 315 q 116 287 123 295 q 111 130 61 225 q 170 57 133 88 q 247 15 208 26 q 388 11 312 0 q 377 418 386 143 q 291 458 338 440 q 264 469 287 461 q 230 482 241 477 q 200 497 219 487 q 166 518 180 506 q 141 541 152 529 q 115 614 118 568 q 123 684 112 661 q 211 806 144 762 q 366 859 279 850 q 365 1025 365 945 q 372 1042 365 1034 q 390 1050 380 1050 q 407 1042 400 1050 q 415 1025 415 1034 q 416 861 415 947 q 458 858 437 861 q 616 780 569 843 q 601 604 673 704 q 584 594 594 595 q 565 599 573 593 q 555 616 556 605 q 559 634 554 626 "},"\\":{"x_min":38.421875,"x_max":519.109375,"ha":465,"o":"m 88 998 q 98 945 86 986 q 130 854 108 909 l 168 762 q 198 690 191 708 l 281 475 l 370 244 q 445 33 404 158 q 518 -195 486 -81 q 516 -214 520 -205 q 501 -226 511 -223 q 482 -224 491 -229 q 470 -209 473 -219 q 398 19 440 -104 q 323 230 356 143 l 234 458 l 151 673 l 122 744 l 84 836 q 50 932 61 893 q 38 1007 36 982 q 48 1023 40 1016 q 67 1027 56 1029 q 84 1018 77 1026 q 88 998 90 1009 "},"’":{"x_min":63.890625,"x_max":190.34375,"ha":207,"o":"m 102 970 q 181 879 159 957 q 179 757 200 811 q 143 708 169 736 l 123 688 l 106 673 q 89 665 100 665 q 71 672 79 665 q 63 689 63 679 q 70 707 63 700 q 88 724 75 712 q 106 743 101 736 q 131 776 127 763 q 133 865 147 813 q 91 923 119 915 q 75 934 80 925 q 72 953 70 943 q 84 968 75 963 q 102 970 93 973 "},"~":{"x_min":23.375,"x_max":704.984375,"ha":726,"o":"m 29 305 q 206 413 111 411 q 368 368 261 415 q 512 325 465 325 q 661 408 588 325 q 678 416 668 415 q 696 410 688 416 q 704 393 704 404 q 700 375 705 383 q 512 275 612 275 q 348 322 454 275 q 208 363 252 365 q 68 275 136 362 q 52 265 62 266 q 33 270 41 263 q 23 286 25 276 q 29 305 22 297 "},"-":{"x_min":8.078125,"x_max":383.359375,"ha":356,"o":"m 29 343 q 358 358 133 358 q 375 350 368 358 q 383 333 383 343 q 375 316 383 323 q 358 308 368 308 q 37 293 134 308 q 18 297 26 291 q 8 314 9 304 q 13 333 6 325 q 29 343 19 341 "},"Q":{"x_min":68.359375,"x_max":759.40625,"ha":703,"o":"m 644 318 q 668 521 668 415 q 630 718 668 627 q 629 726 629 722 q 550 834 590 798 q 367 891 473 902 q 202 797 261 879 q 135 635 155 730 q 120 446 115 540 q 148 268 125 352 q 258 81 184 141 q 412 29 331 22 q 506 62 462 33 q 463 195 472 122 q 469 213 462 205 q 486 223 476 222 q 504 218 495 225 q 513 201 512 211 q 545 95 520 141 q 636 277 612 162 l 636 283 l 640 298 q 641 311 641 304 q 644 318 643 313 m 687 711 q 715 568 709 644 q 713 430 720 493 q 688 288 705 368 q 573 52 663 138 q 741 -47 630 -15 q 756 -59 751 -50 q 758 -77 761 -68 q 746 -92 755 -87 q 727 -94 737 -97 q 534 22 604 -59 q 418 -20 480 -13 q 227 41 315 -30 q 101 254 141 113 q 69 443 75 345 q 86 646 63 541 q 161 825 109 751 q 361 941 233 927 q 583 870 490 954 q 684 727 633 826 q 687 711 688 720 m 340 158 q 337 194 336 179 q 352 234 338 220 q 401 238 370 250 q 434 202 420 231 q 448 151 443 181 q 451 102 452 125 q 448 83 451 90 q 436 65 444 69 q 372 55 416 54 q 312 65 333 56 q 263 102 276 77 q 269 151 251 130 q 340 158 294 179 m 362 102 q 327 127 343 120 q 304 133 311 134 q 294 129 297 131 q 294 118 290 125 q 323 95 300 104 q 373 88 340 90 q 416 91 408 87 q 418 104 418 95 q 415 147 419 123 q 404 190 411 172 q 390 208 397 205 q 380 210 384 209 q 376 209 376 211 l 375 209 q 370 193 370 205 q 379 136 369 168 q 380 130 380 133 l 384 125 q 385 102 397 113 q 362 102 373 90 "},"M":{"x_min":36.109375,"x_max":884.796875,"ha":886,"o":"m 444 554 q 476 570 462 565 q 519 573 501 580 q 543 530 541 563 q 522 484 544 508 q 480 451 506 468 q 437 429 458 437 q 418 425 426 425 q 397 429 404 422 q 363 483 379 441 q 347 541 348 519 q 363 601 344 579 q 409 615 383 623 q 444 554 447 604 m 211 208 q 208 244 206 229 q 223 284 209 270 q 272 288 241 300 q 305 252 291 281 q 319 201 313 231 q 322 152 323 175 q 319 133 322 140 q 306 115 315 119 q 243 105 287 104 q 183 115 204 106 q 134 152 147 127 q 140 201 122 180 q 211 208 165 229 m 719 170 q 747 194 733 186 q 787 205 768 209 q 819 168 811 200 q 811 120 826 148 q 777 79 798 100 q 740 47 758 59 q 722 38 730 41 q 700 37 709 33 q 655 83 680 47 q 626 137 633 115 q 629 198 616 173 q 672 222 644 225 q 719 170 708 218 m 95 911 q 163 765 120 865 l 227 619 q 346 382 268 534 q 454 168 425 230 q 504 266 473 208 q 576 404 561 372 l 687 644 q 802 894 761 809 q 812 905 805 901 q 832 913 820 913 q 849 906 841 913 q 857 888 857 898 q 870 449 857 741 q 884 11 884 156 q 877 -6 884 1 q 859 -13 869 -13 q 842 -6 850 -13 q 834 11 834 1 q 822 418 834 154 q 808 788 809 682 l 620 381 q 548 243 605 347 q 481 105 504 158 q 469 93 477 97 q 465 90 468 91 q 445 89 455 86 q 431 101 436 93 q 308 347 393 183 q 183 597 229 501 q 118 744 169 626 l 94 798 q 91 452 91 719 q 86 12 91 152 q 78 -4 86 2 q 60 -11 70 -11 q 43 -3 50 -11 q 36 15 36 4 q 41 452 41 154 q 48 894 41 766 l 48 895 q 62 922 45 913 q 80 923 70 926 q 95 911 90 920 m 401 512 q 411 554 411 536 q 408 577 412 572 q 400 583 404 581 q 388 579 394 584 q 380 544 379 568 q 394 495 381 527 q 413 456 405 468 q 425 461 419 458 q 463 480 443 468 q 498 508 486 494 q 509 527 509 520 q 508 538 509 534 q 505 543 506 541 q 488 540 501 544 q 440 508 465 530 q 434 505 437 505 l 431 498 q 409 490 425 483 q 401 512 394 497 m 233 152 q 197 177 213 170 q 175 183 181 184 q 165 179 168 181 q 165 168 161 175 q 194 145 170 154 q 244 138 211 140 q 287 141 279 137 q 288 154 288 145 q 286 197 290 173 q 275 240 281 222 q 261 258 268 255 q 251 260 255 259 q 247 259 247 261 l 245 259 q 241 243 241 255 q 250 186 240 218 q 251 180 251 183 l 255 175 q 256 152 268 163 q 233 152 244 140 m 686 119 q 686 162 691 147 q 677 183 682 177 q 668 188 672 188 q 658 183 662 190 q 659 145 651 170 q 683 102 663 130 q 708 68 704 70 q 709 69 708 69 q 720 75 715 70 q 754 102 737 86 q 782 137 772 120 q 788 159 790 152 q 784 168 786 165 q 780 172 782 172 q 765 166 775 173 q 725 125 744 152 q 720 120 723 122 q 719 113 719 118 q 700 100 716 97 q 686 119 683 102 "},"C":{"x_min":23.203125,"x_max":625.296875,"ha":646,"o":"m 290 172 q 287 208 286 193 q 302 248 288 234 q 351 252 320 263 q 384 216 370 245 q 398 165 393 195 q 401 116 402 138 q 398 97 401 104 q 386 79 394 83 q 322 69 366 68 q 262 79 283 70 q 213 116 226 91 q 219 165 201 144 q 290 172 244 193 m 573 704 q 472 839 526 793 q 334 888 419 886 q 176 823 237 893 q 88 634 115 754 q 75 406 66 520 q 116 216 84 291 q 237 59 166 104 q 379 30 308 13 q 504 120 450 47 q 575 306 559 193 q 584 324 576 318 q 603 329 593 330 q 620 319 613 327 q 625 301 626 311 q 543 88 607 173 q 390 -18 479 2 q 213 15 300 -38 q 72 197 127 70 q 25 402 34 279 q 40 645 16 525 q 77 758 54 707 q 135 852 100 809 q 222 918 170 895 q 337 938 273 941 q 502 879 438 934 q 618 726 566 825 q 619 707 622 718 q 607 693 616 697 q 588 691 598 688 q 573 704 577 694 m 312 116 q 277 141 293 134 q 254 147 261 148 q 244 143 247 145 q 244 131 240 138 q 273 109 250 118 q 323 102 290 104 q 366 105 358 101 q 368 118 368 109 q 365 161 369 137 q 354 204 361 186 q 340 222 347 219 q 330 224 334 223 q 326 223 326 225 l 325 223 q 320 206 320 219 q 329 150 319 181 q 330 144 330 147 l 334 138 q 335 115 347 127 q 312 116 323 104 "},"[":{"x_min":54,"x_max":580.671875,"ha":572,"o":"m 170 441 q 192 497 170 477 q 241 513 213 518 q 282 478 270 508 q 281 400 294 448 q 263 365 277 386 q 247 336 250 343 q 236 327 244 329 q 222 326 229 322 q 148 347 216 329 q 75 388 90 363 q 73 433 61 412 q 106 458 83 452 q 170 441 141 465 m 461 166 q 479 181 469 176 q 551 191 519 206 q 580 138 581 176 q 544 68 580 101 q 441 19 508 34 q 423 11 440 19 q 390 8 404 2 q 383 13 386 9 q 381 16 381 15 q 379 23 380 19 l 372 41 q 368 53 370 47 q 366 63 366 59 q 365 68 365 66 q 344 188 337 144 q 386 238 350 234 q 432 220 411 241 q 461 166 454 200 m 118 -48 q 108 -22 111 -34 q 111 16 101 2 q 155 27 125 34 q 186 0 173 23 q 204 -43 197 -18 q 206 -87 209 -68 q 184 -120 204 -115 q 111 -125 144 -133 q 62 -98 77 -118 q 54 -76 52 -87 q 69 -54 54 -62 q 118 -48 84 -45 m 226 900 q 273 952 241 936 q 330 958 304 969 q 372 905 361 945 q 375 871 377 891 q 372 839 373 851 q 362 809 370 827 q 348 781 354 791 q 333 754 343 770 q 306 708 313 722 q 290 668 298 694 q 283 620 281 643 q 281 612 283 616 q 270 601 280 602 q 254 612 256 598 q 225 674 247 650 q 166 722 204 698 q 147 734 165 723 q 125 750 130 745 l 106 763 q 86 780 93 773 q 72 799 80 787 q 59 822 63 811 q 73 893 44 859 q 137 932 98 923 q 212 915 183 941 q 226 900 220 908 m 243 855 q 247 816 247 837 q 233 802 247 802 q 219 816 219 802 q 218 836 219 826 q 216 841 216 838 q 215 852 216 847 q 194 894 209 880 q 144 905 175 912 q 94 876 113 898 q 84 833 76 854 l 93 816 q 104 802 97 809 l 116 791 q 131 779 120 786 q 145 768 141 772 q 163 757 150 765 q 181 745 177 748 q 261 672 238 708 q 309 769 270 701 q 343 838 333 809 q 344 897 352 868 q 320 933 337 926 q 287 927 305 938 q 256 898 269 918 q 243 855 244 879 m 436 138 q 420 191 437 170 q 388 211 404 212 q 370 186 375 209 q 390 76 365 147 q 392 72 391 76 q 395 62 393 69 q 398 50 397 55 q 404 34 402 40 l 404 33 q 411 36 406 34 q 436 47 431 45 q 524 86 495 59 q 552 138 552 113 q 538 166 554 159 q 493 156 520 175 q 476 141 486 152 q 456 118 462 123 q 436 119 445 109 q 436 137 429 129 l 436 138 "},"L":{"x_min":40.28125,"x_max":579.21875,"ha":524,"o":"m 181 166 q 179 202 177 187 q 194 243 180 229 q 243 247 212 258 q 276 211 262 240 q 290 159 284 190 q 293 111 294 133 q 290 91 293 98 q 277 73 286 77 q 213 63 258 62 q 154 73 175 65 q 105 111 118 86 q 111 159 93 138 q 181 166 136 187 m 95 898 q 91 461 87 736 q 94 45 97 131 q 319 44 176 38 q 554 51 516 51 q 571 43 563 51 q 579 26 579 36 q 571 9 579 16 q 554 1 563 1 q 320 -5 516 1 q 84 -4 172 -11 q 77 -2 80 -4 q 69 -4 73 -4 q 51 3 58 -4 q 44 20 44 11 q 41 459 47 119 q 45 901 37 737 q 54 918 45 911 q 72 925 62 925 q 88 916 81 925 q 95 898 95 908 m 204 111 q 168 136 184 129 q 145 141 152 143 q 136 137 138 140 q 136 126 131 133 q 165 104 141 112 q 215 97 181 98 q 258 100 250 95 q 259 112 259 104 q 256 155 261 131 q 245 198 252 180 q 231 216 238 213 q 222 218 226 218 q 218 218 218 219 l 216 218 q 212 201 212 213 q 220 144 211 176 q 222 138 222 141 l 226 133 q 227 110 238 122 q 204 111 215 98 "},"!":{"x_min":31.640625,"x_max":300.6875,"ha":290,"o":"m 159 197 q 187 263 162 240 q 230 278 206 279 q 272 261 254 277 q 300 202 295 238 q 282 113 304 165 q 212 5 261 61 q 195 -2 205 -1 q 176 2 184 -2 l 170 11 q 136 29 152 19 q 125 36 129 30 q 56 95 81 63 q 37 190 19 148 q 70 220 47 212 q 118 219 94 227 q 159 197 138 212 m 152 977 q 208 890 212 943 q 169 805 205 857 l 140 768 l 113 732 q 98 675 93 695 q 109 661 101 668 q 140 644 113 658 q 195 566 195 613 q 159 468 194 511 q 153 460 158 466 q 147 452 148 454 q 142 446 145 451 q 138 438 138 441 q 135 431 137 436 q 131 423 133 427 q 130 415 130 419 q 133 408 130 411 q 140 401 134 405 q 154 390 150 393 q 177 347 173 370 q 165 280 181 319 q 151 267 161 270 q 131 267 141 263 q 118 280 122 270 q 118 300 115 290 q 127 338 130 326 q 119 352 126 347 l 109 362 q 95 373 100 369 q 80 420 77 394 q 84 436 81 429 q 88 451 86 444 q 94 463 91 458 q 101 474 97 468 q 107 483 105 480 q 115 492 109 486 q 122 500 120 498 q 145 566 145 529 q 115 600 145 584 q 80 620 87 615 q 51 661 56 637 q 72 757 38 704 q 100 797 81 773 l 129 834 q 158 894 156 875 q 127 933 161 915 q 116 948 119 938 q 118 967 113 958 q 133 979 123 976 q 152 977 143 982 "}," ":{"x_min":0,"x_max":0,"ha":278},"{":{"x_min":33.34375,"x_max":512.546875,"ha":461,"o":"m 445 945 q 388 955 413 959 q 331 930 363 952 q 275 864 290 901 q 259 776 259 827 q 263 711 259 758 q 268 639 268 665 q 262 566 268 613 q 123 406 245 483 q 113 401 119 404 l 138 391 q 162 381 158 384 q 225 319 195 356 q 268 243 254 281 q 287 80 291 177 q 284 30 286 63 q 282 -14 283 -2 q 283 -55 281 -26 q 322 -138 287 -113 q 487 -173 369 -173 q 504 -181 497 -173 q 512 -198 512 -188 q 504 -215 512 -208 q 487 -223 497 -223 q 293 -179 354 -223 q 233 -59 240 -140 q 232 -13 231 -27 q 235 34 233 0 q 237 81 237 69 q 220 226 240 170 q 184 288 209 256 q 131 340 159 320 l 120 345 l 90 356 q 59 370 69 365 q 47 379 51 375 l 38 384 q 33 404 33 393 q 72 443 34 433 l 95 448 q 212 575 201 515 q 218 640 218 619 q 213 705 218 661 q 209 776 209 750 q 229 885 209 837 q 304 972 248 933 q 468 990 386 1029 q 479 976 476 986 q 479 957 483 966 q 465 945 475 948 q 445 945 455 941 "},"X":{"x_min":55.328125,"x_max":758.390625,"ha":706,"o":"m 508 91 q 493 125 497 109 q 493 168 484 151 q 537 188 504 188 q 583 165 561 188 q 613 120 600 148 q 632 75 626 97 q 636 56 634 65 q 630 36 637 43 q 605 19 623 27 l 573 6 q 513 -5 534 -5 q 456 12 479 -6 q 444 59 434 31 q 486 90 454 84 q 508 91 497 93 m 416 707 q 440 736 427 725 q 479 752 459 754 q 518 720 502 751 q 515 675 526 704 q 490 627 506 652 q 456 590 473 605 q 440 577 448 581 q 418 573 427 570 q 355 625 388 581 q 320 695 323 668 q 334 744 318 729 q 377 751 351 762 q 416 707 402 738 m 750 873 q 687 800 718 838 q 615 702 657 761 l 556 622 l 444 468 l 568 294 l 662 165 q 755 27 720 84 q 757 9 759 19 q 746 -6 755 -1 q 727 -9 737 -11 q 711 2 716 -6 q 622 134 680 54 l 526 266 l 413 426 l 100 0 q 84 -9 94 -8 q 65 -4 73 -11 q 55 11 56 1 q 61 30 54 22 l 383 469 q 105 890 201 725 q 104 909 101 898 q 115 924 106 919 q 134 926 123 929 q 150 915 144 923 q 413 511 243 752 l 518 652 q 574 730 531 670 q 648 831 616 790 q 713 907 680 872 q 731 915 720 915 q 749 908 741 915 q 757 891 757 901 q 750 873 757 880 m 548 47 q 491 58 513 61 q 476 48 479 55 q 476 41 475 45 q 486 32 477 37 q 513 27 495 27 q 563 38 529 27 q 591 50 580 44 q 602 55 598 52 q 600 66 601 59 q 584 105 594 86 q 559 143 572 129 q 537 155 547 155 q 527 154 531 155 q 523 152 523 154 l 522 151 q 525 136 520 147 q 552 86 531 111 q 555 80 555 83 l 562 77 q 570 55 577 70 q 548 47 563 40 m 393 652 q 384 697 393 680 q 363 720 375 715 q 356 720 358 722 q 354 698 352 716 q 381 645 355 680 q 425 607 406 615 q 434 615 429 609 q 462 647 448 627 q 484 686 477 668 q 487 707 490 701 q 477 719 481 719 q 462 711 472 719 q 429 663 444 694 q 426 659 427 661 l 426 652 q 409 636 426 636 q 393 652 393 636 "},"P":{"x_min":55.390625,"x_max":601,"ha":544,"o":"m 106 458 l 108 458 q 320 475 202 448 q 340 478 325 475 q 360 482 355 481 q 378 486 365 483 q 397 492 391 490 q 416 497 404 494 q 434 504 427 501 l 450 511 q 467 518 459 513 q 481 527 475 522 q 545 616 531 562 q 535 723 559 670 q 456 805 511 776 q 108 852 313 884 q 106 461 102 707 l 106 458 m 111 902 q 481 850 326 936 q 580 744 548 812 q 594 604 612 676 q 509 486 576 531 q 488 473 500 479 l 468 463 q 444 454 458 458 l 422 447 q 396 440 412 444 q 375 434 380 436 l 351 430 q 331 425 334 426 q 108 408 209 398 q 109 20 112 145 q 102 2 109 9 q 84 -4 94 -4 q 66 3 73 -4 q 59 20 59 11 q 56 459 62 129 q 59 872 52 718 l 59 876 q 61 901 61 888 q 69 918 61 911 q 87 925 77 925 q 111 902 108 923 m 227 598 q 262 611 247 607 q 304 605 288 616 q 322 559 325 593 q 295 520 320 540 q 251 493 277 506 q 204 476 226 480 q 183 473 191 473 q 161 481 169 473 q 137 540 147 495 q 129 600 127 579 q 154 657 131 637 q 202 663 177 676 q 227 598 236 647 m 179 562 q 194 603 191 586 q 194 626 197 620 q 187 633 191 632 q 175 630 181 636 q 162 597 163 620 q 169 547 161 581 q 184 506 176 518 q 197 508 188 506 q 237 523 215 512 q 275 547 259 534 q 288 562 288 558 q 288 572 288 568 q 287 577 287 576 l 286 577 q 269 577 281 580 q 216 554 243 572 l 211 551 l 206 545 q 184 540 198 531 q 179 562 170 548 "},"%":{"x_min":76.140625,"x_max":833.40625,"ha":776,"o":"m 244 794 q 211 793 227 779 q 200 800 205 797 l 169 800 q 158 802 163 800 q 155 801 156 801 q 126 726 130 779 q 145 638 122 672 q 216 618 169 605 q 247 643 233 620 q 268 697 262 665 q 268 756 273 730 q 248 791 262 782 q 244 794 245 793 m 211 851 q 276 833 252 850 q 316 771 306 812 q 317 688 325 730 q 286 611 309 645 q 227 568 263 577 q 105 609 148 550 q 77 730 70 658 q 123 838 83 802 q 211 851 161 872 m 687 265 q 675 247 680 258 q 659 193 659 222 q 670 151 658 165 q 694 152 676 144 q 737 193 720 165 q 745 234 752 218 q 687 265 734 256 m 765 287 q 790 255 782 273 q 780 166 809 213 q 715 106 755 126 q 632 118 662 83 q 609 195 607 154 q 630 272 611 236 q 686 322 652 312 q 762 291 727 334 q 765 287 763 290 m 825 891 q 750 798 794 861 q 672 695 694 720 l 597 605 l 506 493 l 434 401 l 347 293 l 241 165 q 159 54 197 108 q 143 43 152 45 q 125 47 133 41 q 114 63 116 54 q 118 81 112 73 q 201 194 155 136 l 306 325 l 395 431 l 468 525 l 558 638 l 636 729 q 709 827 657 754 q 791 927 755 894 q 809 934 798 934 q 826 927 819 934 q 833 909 833 919 q 825 891 833 898 "},"#":{"x_min":24.75,"x_max":718.109375,"ha":665,"o":"m 336 277 q 416 512 356 341 q 261 513 322 513 q 234 436 244 466 q 188 273 211 358 q 261 275 212 273 q 336 277 311 277 m 45 559 q 92 563 66 562 q 135 565 118 565 q 183 564 152 565 q 225 563 213 563 q 290 786 276 711 q 301 802 293 797 q 320 806 309 808 q 336 795 330 804 q 340 777 341 787 q 277 563 325 698 q 433 562 337 563 q 445 608 437 577 q 456 652 452 637 q 505 763 477 723 q 521 774 511 772 q 540 770 531 776 q 550 754 548 765 q 547 736 552 744 q 505 638 523 700 q 494 599 501 625 q 484 562 487 573 q 693 561 618 561 q 710 553 702 561 q 718 536 718 545 q 710 518 718 526 q 693 511 702 511 q 469 512 616 511 q 388 277 405 329 q 487 272 422 276 q 612 266 575 266 q 629 259 622 266 q 637 241 637 251 q 629 224 637 231 q 612 216 622 216 q 483 222 569 216 q 373 227 409 227 q 308 -43 327 79 q 297 -59 306 -52 q 279 -63 288 -65 q 263 -53 269 -62 q 258 -34 256 -44 q 320 227 279 84 q 256 225 308 226 q 176 222 205 223 q 120 -34 150 113 q 109 -50 118 -44 q 90 -53 101 -55 q 75 -43 80 -51 q 70 -23 69 -34 q 125 223 100 118 q 56 229 87 225 q 39 238 45 230 q 34 257 33 247 q 44 274 36 268 q 62 279 52 280 q 137 273 97 273 q 187 450 161 366 q 208 513 195 477 q 54 509 91 516 q 34 514 43 508 q 25 531 26 520 q 29 550 23 541 q 45 559 36 558 "},"_":{"x_min":4.171875,"x_max":914.203125,"ha":863,"o":"m 30 -126 q 452 -148 131 -129 q 670 -151 506 -151 q 891 -161 808 -151 q 909 -170 902 -162 q 913 -189 915 -179 q 904 -206 912 -200 q 886 -211 895 -212 q 670 -201 805 -201 q 450 -198 505 -201 q 27 -176 129 -179 q 11 -168 18 -176 q 4 -150 4 -161 q 11 -133 4 -140 q 30 -126 19 -126 "},"+":{"x_min":48.734375,"x_max":638.9375,"ha":586,"o":"m 79 397 q 325 376 177 376 q 352 684 333 545 q 362 700 354 694 q 381 705 370 707 q 397 695 391 704 q 402 676 404 687 q 375 376 383 541 q 615 377 565 379 q 631 370 625 377 q 638 352 638 362 q 631 334 638 341 q 612 327 623 327 q 373 326 576 329 q 369 44 369 212 q 361 27 369 34 q 344 19 354 19 q 327 27 334 19 q 319 44 319 34 q 323 326 319 212 q 68 347 170 326 q 52 358 58 350 q 49 377 47 366 q 59 393 51 387 q 79 397 68 398 "},"　":{"x_min":0,"x_max":0,"ha":1389},")":{"x_min":-3.796875,"x_max":375.125,"ha":319,"o":"m 33 977 q 104 941 62 976 q 172 872 134 916 q 276 733 234 797 q 373 404 362 594 q 312 65 384 213 q 165 -134 275 -11 q 33 -251 91 -218 q 13 -252 23 -255 q 0 -240 4 -250 q -2 -222 -5 -231 q 8 -206 0 -212 q 129 -101 59 -177 q 268 87 233 16 q 323 401 333 223 q 234 705 313 579 q 134 838 194 769 q 70 904 98 880 q 30 927 43 927 q 13 936 20 927 q 6 954 6 944 q 15 970 6 963 q 33 977 23 977 "},"'":{"x_min":34.71875,"x_max":100.015625,"ha":149,"o":"m 100 947 q 91 805 98 904 q 84 666 84 707 q 77 649 84 657 q 59 641 69 641 q 42 649 50 641 q 34 666 34 657 q 41 809 34 712 q 50 947 48 907 q 57 965 50 958 q 75 972 65 972 q 93 964 86 972 q 100 947 100 957 "},"}":{"x_min":-2.703125,"x_max":475.3125,"ha":422,"o":"m 16 991 q 204 973 141 1023 q 265 833 255 932 q 265 663 269 791 q 273 527 262 562 q 388 427 294 463 q 422 416 413 418 l 425 416 q 430 417 426 416 q 436 418 434 418 q 454 418 447 419 q 471 404 465 413 q 473 381 477 394 q 440 354 468 359 q 431 352 434 352 q 426 350 427 351 q 422 350 425 350 l 368 322 q 324 293 347 312 q 290 252 301 275 q 266 131 263 206 q 272 65 268 111 q 276 -2 276 19 q 237 -133 276 -84 q 69 -218 188 -193 q 50 -213 58 -219 q 39 -197 41 -208 q 43 -179 37 -187 q 58 -168 48 -170 q 198 -101 161 -147 q 226 -2 226 -66 q 222 61 226 13 q 216 130 218 108 q 245 277 213 218 q 372 380 277 336 q 226 511 254 425 q 215 665 211 556 q 215 829 219 791 q 173 934 208 907 q 27 944 130 969 q 9 946 18 941 q -2 961 0 951 q 0 981 -4 972 q 16 991 5 990 "},"a":{"x_min":55.296875,"x_max":516.703125,"ha":500,"o":"m 422 476 q 411 503 418 486 q 404 526 405 520 q 368 587 388 565 q 300 622 336 620 q 233 598 268 623 q 171 537 198 576 q 131 461 144 498 q 106 306 108 386 q 126 154 104 227 q 158 100 136 126 q 205 59 180 73 q 305 61 262 26 q 377 180 347 93 q 413 336 401 251 q 422 476 425 420 m 476 445 q 466 241 463 354 q 479 113 469 165 q 508 41 490 58 q 516 24 516 34 q 509 6 516 13 q 492 -1 502 -1 q 475 5 481 -1 q 430 104 444 33 q 422 156 425 127 q 337 22 387 62 q 180 15 268 -33 q 119 68 147 34 q 79 137 91 101 q 55 308 52 222 q 84 475 58 394 q 131 566 98 520 q 204 640 163 612 q 301 672 252 673 q 404 620 358 669 q 450 544 431 593 l 466 500 l 468 498 q 481 470 486 490 l 480 468 q 476 445 484 456 m 240 205 q 251 240 244 226 q 280 270 262 263 q 327 256 302 279 q 344 211 344 243 q 337 158 345 187 q 322 111 331 131 l 312 94 q 294 81 304 83 q 263 86 281 80 q 231 98 250 90 q 179 129 195 115 q 148 181 151 154 q 172 225 147 212 q 240 205 205 243 m 238 144 q 215 183 227 169 q 196 196 202 197 q 187 195 190 195 q 181 184 181 193 q 201 154 183 169 q 245 129 213 143 q 273 118 261 122 q 286 115 280 115 q 291 125 288 119 q 305 166 300 143 q 311 209 311 191 q 305 231 311 227 q 291 238 295 240 q 280 226 286 237 q 268 169 270 204 q 266 163 268 166 l 269 158 q 261 136 276 143 q 238 144 245 129 "},"T":{"x_min":23.375,"x_max":739.1875,"ha":686,"o":"m 479 738 q 476 775 475 759 q 491 815 477 801 q 540 819 509 830 q 573 783 559 812 q 587 732 581 762 q 590 683 591 705 q 587 663 590 670 q 575 645 583 650 q 511 636 555 634 q 451 645 472 637 q 402 683 415 658 q 408 732 390 711 q 479 738 433 759 m 501 683 q 466 708 481 701 q 443 713 450 715 q 433 709 436 712 q 433 698 429 705 q 462 676 438 684 q 512 669 479 670 q 555 673 541 668 q 556 684 556 677 q 554 727 558 704 q 543 770 550 752 q 529 788 536 786 q 519 791 523 790 q 515 790 515 791 l 513 790 q 509 773 509 786 q 518 716 508 748 q 519 711 519 713 l 523 705 q 524 682 536 694 q 501 683 512 670 m 51 926 q 711 941 322 902 q 729 936 722 943 q 738 918 737 929 q 733 900 740 908 q 716 891 726 893 q 398 869 536 873 l 398 866 q 394 438 390 708 q 397 9 400 106 q 389 -8 397 -1 q 371 -15 381 -15 q 354 -7 361 -15 q 347 9 347 0 q 344 438 350 106 q 348 868 340 708 q 45 876 190 863 q 29 885 36 877 q 23 903 22 893 q 32 920 25 913 q 51 926 40 927 "},"=":{"x_min":34.90625,"x_max":661.15625,"ha":657,"o":"m 72 511 q 348 510 163 511 q 625 509 533 509 q 642 502 634 509 q 650 484 650 494 q 642 467 650 475 q 625 459 634 459 q 348 460 533 459 q 72 461 163 461 q 54 468 62 461 q 47 486 47 476 q 54 503 47 495 q 72 511 62 511 m 55 268 q 105 272 79 272 q 167 272 131 273 q 213 270 202 270 q 425 269 284 270 q 636 268 565 268 q 653 260 645 268 q 661 243 661 252 q 653 225 661 233 q 636 218 645 218 q 425 219 565 218 q 213 220 284 220 q 164 222 197 220 q 108 222 131 223 q 63 218 84 222 q 45 222 54 216 q 35 238 37 229 q 39 256 33 248 q 55 268 45 265 "},"N":{"x_min":26.390625,"x_max":672.28125,"ha":685,"o":"m 491 608 q 488 644 487 629 q 504 684 490 670 q 552 688 522 700 q 586 652 572 682 q 600 601 594 632 q 602 552 604 575 q 600 533 602 540 q 587 515 595 519 q 523 505 568 504 q 463 515 484 506 q 415 552 427 527 q 420 601 402 580 q 491 608 445 629 m 200 154 q 231 172 216 166 q 273 175 255 183 q 298 133 295 166 q 280 88 300 112 q 240 54 265 70 q 198 29 218 37 q 179 23 187 25 q 156 27 165 22 q 115 95 133 45 q 104 175 97 145 q 133 216 112 206 q 177 209 156 227 q 200 154 198 190 m 90 900 q 193 738 127 845 q 291 579 273 605 l 394 426 l 516 248 l 622 98 q 616 506 623 237 q 608 898 608 775 q 616 916 608 908 q 633 923 623 923 q 650 916 643 923 q 658 898 658 908 q 666 481 658 782 q 670 19 675 180 q 663 1 670 8 q 645 -5 655 -5 q 623 6 630 -5 q 620 11 622 9 l 447 261 q 250 551 323 437 q 151 713 230 581 l 88 812 q 83 695 87 779 q 77 566 79 611 q 77 287 76 473 q 76 9 77 101 q 68 -8 76 -1 q 50 -15 61 -15 q 33 -7 40 -15 q 26 9 26 0 q 27 288 27 104 q 27 566 26 473 q 34 720 29 611 q 40 887 40 829 q 47 904 40 897 q 65 912 55 912 q 80 907 73 912 q 90 900 86 904 m 513 552 q 478 577 494 570 q 455 583 462 584 q 445 579 448 581 q 445 568 441 575 q 475 545 451 554 q 525 538 491 540 q 568 543 554 537 q 569 554 569 547 q 566 597 570 573 q 555 640 562 622 q 541 658 548 655 q 531 660 536 659 q 527 659 527 661 l 526 659 q 522 643 522 655 q 530 586 520 618 q 531 580 531 583 l 536 575 q 536 552 548 563 q 513 552 525 540 m 159 111 q 165 159 168 143 q 155 183 163 176 q 147 186 151 187 q 137 166 141 183 q 145 106 131 147 q 173 56 159 70 q 186 61 179 58 q 222 80 202 68 q 254 109 243 95 q 265 130 266 123 q 263 140 265 136 q 261 144 262 144 q 244 141 255 147 q 197 109 220 131 q 193 105 195 106 l 190 100 q 169 90 184 84 q 159 111 154 95 "},"2":{"x_min":60.125,"x_max":607,"ha":547,"o":"m 379 490 q 413 505 398 501 q 455 502 440 512 q 476 458 477 491 q 452 416 476 438 q 409 387 436 401 q 362 368 384 373 q 343 363 351 363 q 320 370 327 363 q 288 444 298 391 q 288 522 279 494 q 322 559 298 552 q 363 547 345 568 q 379 490 381 526 m 72 520 q 172 630 98 590 q 329 673 245 670 q 479 630 415 675 q 548 494 544 584 q 493 363 552 416 q 388 300 461 334 q 333 272 376 293 l 266 241 q 162 171 200 206 q 120 93 125 136 q 118 80 120 87 l 115 66 q 111 58 112 58 q 119 56 115 56 q 163 58 136 56 q 209 62 181 59 q 241 65 237 65 q 388 69 327 69 l 581 69 q 599 61 591 69 q 607 44 607 54 q 599 27 607 34 q 581 19 591 19 l 388 19 q 244 15 327 19 q 212 12 240 15 q 166 8 184 9 q 118 6 136 6 q 97 9 105 8 q 75 18 83 11 q 62 70 54 36 q 68 86 65 77 q 70 98 70 94 q 124 203 77 159 q 244 286 170 247 l 312 318 l 366 344 q 459 400 433 376 q 498 491 501 437 q 448 590 495 556 q 329 623 401 623 q 198 588 258 622 q 119 504 138 555 q 106 490 115 494 q 87 489 97 486 q 73 502 77 493 q 72 520 69 511 m 331 454 q 345 501 345 484 q 338 525 345 518 q 331 529 334 529 q 319 511 325 526 q 320 450 312 491 q 341 397 327 412 q 354 400 345 397 q 393 416 372 404 q 430 441 416 429 q 443 458 443 452 q 442 468 443 465 q 440 473 441 472 l 438 473 q 422 473 434 476 q 370 445 398 466 l 365 443 l 362 437 q 339 431 354 423 q 331 454 325 438 "},"j":{"x_min":-130.8125,"x_max":211.46875,"ha":182,"o":"m 100 920 q 97 957 95 941 q 112 997 98 983 q 161 1001 130 1012 q 194 965 180 994 q 208 913 202 944 q 211 865 212 887 q 208 845 211 852 q 195 827 204 832 q 131 818 176 816 q 72 827 93 819 q 23 865 36 840 q 29 913 11 893 q 100 920 54 941 m 152 609 q 167 433 155 547 q 185 243 179 319 q 188 63 191 166 q 168 -123 186 -38 q 113 -236 154 -188 q 23 -297 73 -283 q -75 -277 -33 -312 q -130 -162 -118 -241 q -125 -143 -131 -151 q -109 -133 -119 -134 q -90 -138 -98 -131 q -80 -154 -81 -144 q -43 -238 -72 -215 q 9 -248 -20 -256 q 75 -202 44 -240 q 118 -112 106 -165 q 138 66 136 -27 q 135 239 141 165 q 118 427 129 313 q 102 607 106 540 q 109 625 102 616 q 126 633 116 633 q 144 626 136 633 q 152 609 152 619 m 122 865 q 86 890 102 883 q 63 895 70 897 q 54 891 56 894 q 54 880 50 887 q 83 858 59 866 q 133 851 100 852 q 176 854 168 850 q 177 866 177 858 q 175 909 179 886 q 163 952 170 934 q 150 970 156 968 q 140 972 144 972 q 136 972 136 973 l 134 972 q 130 955 130 968 q 138 898 129 930 q 140 893 140 895 l 144 887 q 145 864 156 876 q 122 865 133 852 "},"Z":{"x_min":41.4375,"x_max":744.5,"ha":692,"o":"m 308 195 q 305 231 304 216 q 320 272 306 258 q 369 276 338 287 q 402 240 388 269 q 416 188 411 219 q 419 140 420 162 q 416 120 419 127 q 404 102 412 106 q 340 93 384 91 q 280 102 301 94 q 231 140 244 115 q 237 188 219 168 q 308 195 262 216 m 376 682 q 401 709 388 700 q 440 726 420 727 q 477 694 463 725 q 473 645 486 675 q 447 600 465 625 q 413 563 430 577 q 397 551 404 555 q 375 548 384 544 q 325 587 354 555 q 290 637 300 616 q 283 698 275 672 q 322 727 294 726 q 376 682 359 727 m 261 518 q 402 522 315 515 l 504 657 l 552 722 l 613 802 q 666 869 640 838 q 397 866 584 869 q 109 863 209 863 q 92 871 100 863 q 84 888 84 879 q 92 906 84 898 q 109 913 100 913 q 414 916 211 913 q 719 919 618 919 q 736 911 729 919 q 744 894 744 904 q 743 886 744 890 q 736 872 741 877 q 675 800 705 838 l 601 704 l 543 626 l 468 526 q 591 531 544 531 q 609 524 601 531 q 616 506 616 516 q 609 489 616 497 q 591 481 601 481 q 429 473 544 481 l 111 50 q 393 52 198 50 q 691 54 588 54 q 709 46 701 54 q 716 29 716 38 q 709 11 716 19 q 691 4 701 4 q 379 2 587 4 q 66 0 170 0 q 49 7 56 0 q 41 25 41 15 l 41 30 q 47 50 40 41 l 363 469 q 258 468 304 466 q 241 475 248 468 q 234 493 234 483 q 242 511 234 504 q 261 518 250 518 m 330 140 q 295 165 311 158 q 272 170 279 172 q 262 166 265 169 q 262 155 258 162 q 291 133 268 141 q 341 126 308 127 q 384 129 376 125 q 386 141 386 133 q 383 184 387 161 q 372 227 379 209 q 358 245 365 243 q 348 247 352 247 q 344 247 344 248 l 343 247 q 338 230 338 243 q 347 173 337 205 q 348 168 348 170 l 352 162 q 353 139 365 151 q 330 140 341 127 m 351 627 q 345 670 351 654 q 333 690 338 686 q 323 694 327 694 q 315 687 318 694 q 320 651 311 673 q 350 609 327 636 q 381 581 369 588 q 391 588 386 583 q 420 620 405 601 q 443 658 436 641 q 447 680 450 675 q 442 689 444 686 q 438 693 440 693 l 437 693 q 423 684 431 694 q 388 637 404 668 q 384 633 387 634 l 384 627 q 368 611 384 611 q 351 627 351 611 "},"u":{"x_min":23.609375,"x_max":383.03125,"ha":417,"o":"m 215 515 q 218 545 215 533 q 237 583 222 572 q 287 581 258 595 q 315 541 306 572 q 322 488 322 519 q 318 438 323 461 q 312 419 316 427 q 297 404 306 406 q 256 402 284 398 q 220 408 241 404 q 138 450 159 420 q 144 506 116 480 q 215 515 173 536 m 73 622 q 76 486 76 588 q 80 320 76 383 q 151 62 94 119 q 231 33 177 36 q 290 94 265 31 q 325 268 315 155 q 326 608 340 438 q 331 625 325 618 q 349 634 338 633 q 367 629 359 636 q 376 611 375 622 q 375 263 390 436 q 336 75 363 144 q 229 -16 298 -19 q 115 26 155 -13 q 30 316 44 98 q 26 486 26 379 q 23 619 26 587 q 29 636 23 629 q 46 645 36 644 q 64 639 56 645 q 73 622 72 633 m 229 452 q 205 482 219 473 q 181 490 191 491 q 166 483 172 488 q 166 469 161 476 q 226 441 179 451 q 261 436 247 437 q 283 434 275 434 q 286 445 284 438 q 288 488 290 463 q 283 531 288 513 q 273 551 279 548 q 256 555 261 558 q 250 540 252 552 q 252 480 245 516 q 259 466 256 473 q 251 444 266 451 q 229 452 236 437 "},"1":{"x_min":46.96875,"x_max":482.71875,"ha":429,"o":"m 390 179 q 425 188 409 186 q 466 181 451 193 q 481 134 486 168 q 454 95 479 113 q 406 70 434 81 q 358 56 380 61 q 338 56 347 55 q 318 65 325 56 q 304 93 309 73 q 297 126 300 106 q 293 187 290 165 q 320 241 298 223 q 368 245 344 259 q 390 179 401 227 m 301 712 q 273 294 275 443 l 273 225 l 273 156 q 270 48 273 93 q 433 44 390 47 q 450 35 444 43 q 456 17 456 27 q 447 0 455 6 q 430 -5 440 -5 q 256 -1 393 -2 q 240 -5 250 -6 q 227 0 233 -4 q 68 11 136 1 q 52 20 58 12 q 47 39 45 29 q 56 56 48 50 q 76 61 65 62 q 220 50 136 51 q 223 156 223 94 l 223 225 l 223 294 q 245 650 225 434 q 145 561 193 588 q 127 557 137 555 q 111 568 116 559 q 109 588 106 577 q 120 602 111 598 l 136 613 q 152 626 144 619 l 166 638 q 181 654 173 644 q 195 668 190 663 q 209 686 200 673 l 222 701 l 236 719 q 250 734 247 732 q 266 744 256 743 q 284 738 276 745 l 286 738 q 301 712 302 732 m 340 144 q 357 185 354 168 q 358 208 361 202 q 352 216 355 213 q 340 215 347 219 q 326 181 329 205 q 329 131 323 165 q 336 102 331 115 q 341 90 338 94 q 354 90 345 88 q 394 101 372 93 q 433 122 418 111 q 448 140 447 133 q 449 149 450 145 q 448 154 448 152 l 447 155 q 430 156 443 158 q 376 136 406 152 q 372 133 375 134 l 368 127 q 345 121 359 112 q 340 144 330 130 "},"k":{"x_min":61.109375,"x_max":545.75,"ha":494,"o":"m 134 334 l 325 191 q 534 37 466 83 q 545 21 543 31 q 541 2 547 11 q 525 -7 536 -5 q 506 -4 515 -9 q 294 151 434 43 q 118 284 170 247 q 119 22 119 136 q 111 4 119 12 q 94 -2 104 -2 q 77 4 84 -2 q 69 22 69 12 q 65 494 69 179 q 61 966 61 809 q 68 984 61 976 q 86 991 76 991 q 103 984 95 991 q 111 966 111 976 q 116 395 111 826 q 213 525 150 443 l 300 637 q 316 647 305 645 q 334 642 326 648 q 344 625 343 636 q 338 607 345 615 l 248 488 q 134 334 172 390 m 273 370 q 293 402 283 390 q 327 426 308 425 q 370 402 351 430 q 375 356 380 387 q 359 306 370 334 q 336 263 348 281 q 322 248 327 254 q 300 240 311 238 q 243 268 277 243 q 197 309 211 291 q 179 368 175 338 q 211 404 183 397 q 273 370 247 415 m 259 312 q 244 353 254 338 q 229 370 234 368 q 219 372 223 373 q 212 362 213 370 q 225 329 209 348 q 262 295 234 315 q 300 273 287 277 q 308 283 304 276 q 329 320 319 298 q 343 362 338 344 q 343 383 345 379 q 336 391 340 388 l 333 393 l 331 393 q 319 383 326 393 q 294 330 302 362 l 291 325 q 293 318 291 322 q 279 299 295 302 q 259 312 263 295 "},"<":{"x_min":30.5625,"x_max":566.578125,"ha":515,"o":"m 562 652 q 395 511 518 587 q 295 450 359 487 l 211 402 q 122 355 186 386 l 98 343 l 112 337 q 144 323 123 331 q 166 313 162 316 q 533 43 390 195 q 540 25 540 36 q 532 8 540 15 q 514 1 525 1 q 497 9 504 1 q 144 269 359 155 q 125 277 141 270 q 91 291 105 286 q 56 311 69 301 q 30 345 34 326 q 31 356 30 351 q 34 363 31 361 l 36 365 q 40 369 37 368 q 41 370 40 370 l 43 372 l 45 372 l 48 375 l 61 380 l 100 400 q 186 444 161 430 q 268 494 204 456 l 369 552 q 520 680 481 625 q 536 691 526 688 q 555 687 547 693 q 566 671 563 682 q 562 652 568 661 "},"t":{"x_min":46.984375,"x_max":513.859375,"ha":556,"o":"m 377 176 q 409 193 394 187 q 451 195 433 202 q 476 154 473 186 q 458 111 477 134 q 418 76 443 94 q 375 51 395 59 q 354 45 363 47 q 331 50 340 44 q 297 104 315 62 q 280 162 281 140 q 295 222 277 201 q 343 236 316 244 q 377 176 377 225 m 73 629 q 216 625 133 623 q 213 809 218 720 q 220 828 213 820 q 238 836 227 836 q 256 829 248 836 q 263 812 263 822 q 266 626 268 722 q 433 630 404 630 q 450 622 443 630 q 458 605 458 615 q 450 588 458 595 q 433 580 443 580 q 266 576 406 580 q 258 400 263 488 q 254 343 258 390 q 249 277 250 295 q 248 223 248 259 q 252 160 248 187 q 263 109 256 133 q 350 31 283 48 q 476 51 416 15 q 495 54 484 56 q 510 43 505 52 q 513 24 515 34 q 501 9 511 13 q 395 -22 452 -19 q 286 5 337 -25 q 216 95 236 36 q 203 152 208 122 q 198 221 198 181 q 199 281 198 261 q 204 348 200 301 q 208 402 208 395 q 216 575 213 490 q 70 579 131 573 q 52 588 59 580 q 47 606 45 595 q 56 623 48 616 q 73 629 63 630 m 336 133 q 345 174 345 156 q 340 197 344 191 q 331 204 336 202 q 320 200 326 206 q 313 165 312 188 q 327 116 315 148 q 350 79 340 88 q 362 81 354 79 q 398 104 379 88 q 431 133 419 118 q 443 151 443 145 q 441 160 443 156 q 438 165 440 163 q 422 162 433 166 q 373 130 398 152 q 369 127 372 129 l 366 122 q 345 111 361 105 q 336 133 329 118 "},"W":{"x_min":64.265625,"x_max":1179.109375,"ha":1176,"o":"m 584 408 q 581 444 580 429 q 597 484 583 470 q 645 488 615 500 q 679 452 665 481 q 693 401 687 431 q 695 352 697 375 q 693 333 695 340 q 680 315 688 319 q 616 305 661 304 q 556 315 577 306 q 508 352 520 327 q 513 401 495 380 q 584 408 538 429 m 930 797 q 944 832 936 818 q 975 861 957 855 q 1022 843 998 868 q 1034 797 1036 829 q 1026 745 1034 773 q 1007 700 1018 719 q 995 683 1001 688 q 976 672 986 673 q 900 700 945 669 q 844 755 858 727 q 840 807 829 786 q 880 826 851 829 q 930 797 907 822 m 294 607 q 311 640 302 626 q 344 666 326 662 q 388 645 368 670 q 398 600 401 630 q 386 548 395 576 q 363 502 376 522 q 350 486 356 493 q 329 477 338 477 q 269 502 306 479 q 223 540 237 523 q 201 597 200 569 q 230 636 204 627 q 294 607 265 648 m 112 909 q 154 741 129 851 l 190 583 l 258 334 q 326 87 305 169 l 448 461 q 608 893 538 737 q 621 906 612 902 q 640 905 630 909 q 655 886 654 900 l 655 884 q 713 653 677 804 q 763 443 748 502 q 812 271 779 384 q 859 102 845 158 q 973 463 861 106 q 1130 909 1061 741 q 1144 922 1134 919 q 1163 922 1154 926 q 1177 909 1173 919 q 1177 890 1180 900 q 1020 448 1107 725 q 882 12 909 90 q 873 -8 882 0 q 845 -15 862 -20 q 832 -3 836 -12 q 830 15 827 5 q 772 236 812 94 q 716 430 732 372 q 670 619 698 500 q 625 807 641 744 q 495 445 570 673 l 352 9 q 333 -6 348 -4 q 325 -9 330 -9 q 306 -7 315 -12 q 295 8 297 -2 q 215 301 269 111 q 143 572 162 491 q 105 727 130 618 q 65 895 80 837 q 67 914 62 905 q 81 926 72 923 q 100 924 91 929 q 112 909 109 919 m 607 352 q 571 377 587 370 q 548 383 555 384 q 538 379 541 381 q 538 368 534 375 q 568 345 544 354 q 618 338 584 340 q 661 341 652 337 q 662 354 662 345 q 659 397 663 373 q 648 440 655 422 q 634 458 641 455 q 625 460 629 459 q 620 459 620 461 l 619 459 q 615 443 615 455 q 623 386 613 418 q 625 380 625 383 l 629 375 q 629 352 641 363 q 607 352 618 340 m 926 738 q 902 777 916 763 q 876 793 887 791 l 869 791 q 875 769 866 786 q 919 727 884 750 q 970 705 951 707 q 977 716 973 708 q 994 755 987 732 q 1001 798 1001 779 q 997 820 1002 815 q 989 827 993 825 q 984 829 986 829 l 983 829 q 973 816 979 827 q 957 759 961 794 q 955 755 957 758 q 957 750 957 752 q 947 729 962 734 q 926 738 932 723 m 284 547 q 267 588 277 573 q 250 604 256 602 q 240 605 244 607 q 234 594 234 602 q 248 562 233 580 q 287 530 259 548 q 327 511 313 513 q 336 520 331 515 q 354 559 345 536 q 365 602 362 583 q 363 623 366 619 q 355 630 359 629 l 352 633 l 351 633 q 338 620 345 632 q 318 566 325 600 q 315 562 316 563 q 318 555 316 559 q 306 535 322 540 q 284 547 290 530 "},"v":{"x_min":32.109375,"x_max":522.109375,"ha":504,"o":"m 231 538 q 268 555 251 550 q 309 556 293 565 q 333 512 331 545 q 312 470 333 494 q 270 438 295 454 q 226 416 247 423 q 205 411 215 412 q 183 416 191 409 q 145 487 159 436 q 140 565 133 536 q 172 607 150 600 q 215 593 195 615 q 231 538 231 572 m 80 619 q 186 325 94 584 q 277 98 236 183 q 310 200 293 150 q 351 312 327 250 l 388 408 q 434 518 401 440 q 473 615 466 597 q 487 628 477 625 q 506 628 497 632 q 520 615 516 625 q 520 595 523 605 l 483 505 l 443 408 l 406 319 q 370 220 384 259 q 340 130 356 181 l 309 33 l 309 31 q 297 8 311 16 q 277 6 287 4 q 262 18 268 9 q 138 308 204 123 q 33 600 45 573 q 34 619 30 609 q 47 632 37 629 q 66 632 56 636 q 80 619 76 629 m 190 498 q 198 543 200 525 q 188 572 197 562 q 183 576 184 576 q 173 556 177 573 q 179 495 168 536 q 202 444 188 458 q 215 447 206 444 q 252 466 231 454 q 288 494 275 480 q 300 512 300 506 q 298 521 300 518 q 297 526 297 525 l 295 526 q 279 525 291 529 q 229 494 252 515 q 223 491 226 491 q 220 484 222 487 q 198 476 213 469 q 190 498 183 483 "},">":{"x_min":60.234375,"x_max":611.546875,"ha":557,"o":"m 95 662 q 165 623 123 650 q 229 583 213 591 q 454 480 298 543 q 537 440 486 466 q 583 413 566 425 q 600 401 594 406 q 608 391 605 395 q 609 366 613 379 q 594 350 605 358 l 579 338 l 529 311 l 383 234 q 120 68 165 119 q 103 60 113 61 q 85 65 93 59 q 77 82 77 72 q 81 101 76 93 q 359 279 133 159 l 505 355 q 545 377 531 369 q 515 395 533 386 q 434 433 466 420 q 204 538 277 498 l 137 580 q 73 618 100 605 q 61 631 65 622 q 62 650 58 641 q 76 663 66 659 q 95 662 86 666 "},"s":{"x_min":22.21875,"x_max":481.375,"ha":469,"o":"m 306 498 q 309 534 306 519 q 331 570 315 561 q 380 566 352 584 q 406 526 398 555 q 411 473 412 502 q 405 423 411 445 q 398 405 402 412 q 383 390 393 393 q 319 393 362 383 q 262 412 281 401 q 222 458 229 430 q 236 505 213 487 q 306 498 265 529 m 412 565 q 341 597 388 586 q 248 601 294 608 q 170 572 198 595 q 143 508 143 548 q 191 443 143 476 q 227 421 208 431 q 275 395 245 411 q 318 373 305 380 q 352 355 337 363 q 384 335 366 347 q 416 311 402 323 q 442 284 429 298 q 463 252 455 269 q 477 218 472 236 q 481 177 481 200 q 473 131 480 155 q 381 16 452 54 q 226 -12 309 -20 q 82 44 143 -5 q 22 179 22 94 q 29 196 22 188 q 47 204 37 204 q 64 196 56 204 q 72 179 72 188 q 117 81 72 119 q 231 36 162 43 q 354 59 300 30 q 426 145 409 88 q 408 246 443 205 q 294 330 373 287 q 253 350 284 334 q 201 378 222 366 q 163 401 180 390 q 93 508 93 450 q 136 607 93 572 q 241 651 179 643 q 354 645 297 658 q 445 604 412 632 q 453 586 452 597 q 447 568 454 576 q 431 560 441 561 q 412 565 420 559 m 316 438 q 286 472 301 462 q 266 481 272 483 q 256 479 259 479 q 254 466 251 475 q 279 440 258 452 q 326 425 293 433 q 369 420 355 419 q 373 431 370 425 q 377 473 377 450 q 373 518 379 500 q 363 538 369 534 q 354 543 358 541 q 350 543 351 544 q 343 527 345 540 q 341 469 337 502 l 341 462 l 344 458 q 340 434 354 444 q 316 438 326 425 "},"B":{"x_min":43.0625,"x_max":616.40625,"ha":588,"o":"m 93 875 q 102 563 93 751 q 120 565 108 563 l 131 565 q 143 566 138 565 q 151 566 148 566 q 456 680 377 591 q 472 704 470 695 q 469 737 473 712 q 421 809 462 777 q 313 861 380 841 q 192 881 255 877 q 93 875 129 884 m 104 509 q 120 56 119 186 q 267 40 179 40 q 423 63 355 41 q 540 137 505 88 q 559 276 580 191 q 462 413 538 356 q 286 497 386 469 q 154 511 234 511 l 115 511 q 104 509 112 511 m 204 155 q 202 193 201 176 q 220 230 205 219 q 270 231 240 245 q 300 194 288 223 q 311 141 308 172 q 311 93 313 115 q 308 73 309 81 q 295 55 304 61 q 230 51 275 45 q 170 63 193 55 q 125 104 136 77 q 133 152 113 131 q 204 155 159 179 m 350 747 q 383 762 368 758 q 425 763 408 770 q 448 720 447 752 q 427 677 450 701 q 386 645 411 661 q 340 623 361 630 q 320 618 329 619 q 298 623 306 616 q 280 647 288 630 q 266 679 273 661 q 251 738 251 718 q 269 797 250 776 q 316 809 290 819 q 350 747 351 797 m 75 922 q 191 931 120 934 q 327 908 262 927 q 455 845 402 886 q 519 745 508 805 q 520 691 525 709 q 493 647 515 672 q 304 543 433 579 q 429 494 372 525 q 538 409 487 463 q 607 287 590 355 q 580 108 634 181 q 438 15 536 45 q 272 -8 365 -6 q 116 6 179 -9 q 95 -4 108 -4 q 78 3 86 -4 q 70 20 70 11 q 56 459 70 166 q 43 898 43 751 q 50 916 43 908 q 68 923 58 923 q 75 922 72 923 m 222 98 q 189 125 205 118 q 166 132 173 133 q 156 129 159 131 q 155 116 152 125 q 184 94 161 104 q 234 83 201 87 q 276 84 262 80 q 277 95 277 88 q 277 138 280 115 q 269 183 275 165 q 256 201 262 198 q 247 204 251 204 q 243 204 243 205 l 241 204 q 236 188 237 201 q 243 130 233 162 l 243 125 l 247 120 q 245 97 258 108 q 222 98 233 86 m 306 705 q 316 747 316 730 q 312 770 316 765 q 304 779 308 776 q 294 775 298 780 q 284 738 284 763 q 297 690 284 725 q 309 662 304 673 q 316 651 313 655 q 329 654 322 651 q 368 673 347 661 q 404 701 390 687 q 415 718 415 713 q 409 733 413 730 q 393 732 405 734 q 343 702 372 723 l 340 700 l 337 694 q 316 684 331 677 q 306 705 300 690 "},"?":{"x_min":51.375,"x_max":469.84375,"ha":468,"o":"m 179 118 q 222 180 195 162 q 280 179 255 202 q 295 111 302 156 q 254 13 288 66 q 252 8 254 11 q 237 -1 250 -2 q 227 1 233 -1 l 226 2 q 196 12 223 4 q 159 25 169 20 q 129 37 148 29 q 98 55 111 45 q 70 100 66 79 q 105 126 73 122 q 179 118 138 131 m 73 720 q 70 851 30 782 q 177 941 104 909 q 250 959 212 955 q 324 956 287 963 q 393 920 361 948 q 444 848 425 893 q 443 628 495 732 q 277 466 390 525 q 205 438 269 462 q 166 425 180 430 q 158 420 162 422 q 159 408 158 416 q 166 347 161 390 q 180 234 180 250 q 172 217 180 225 q 155 209 165 209 q 138 217 145 209 q 130 234 130 225 q 118 340 130 244 q 109 402 111 388 q 108 425 108 416 q 108 433 106 429 l 108 438 q 115 452 109 447 q 147 470 123 461 l 188 486 q 255 511 252 509 q 397 648 354 562 q 400 829 440 734 q 346 892 380 870 q 274 913 312 913 q 197 895 236 912 q 113 826 138 869 q 115 748 90 784 q 118 730 120 740 q 108 714 116 720 q 90 710 100 708 q 73 720 80 712 m 204 73 q 156 95 183 88 q 109 98 129 102 q 97 95 101 98 q 115 77 100 88 q 143 61 126 69 q 168 51 159 54 l 202 38 q 231 30 229 30 q 268 115 262 77 q 261 158 273 147 q 237 156 252 168 q 204 105 218 144 q 220 95 212 101 q 223 76 231 87 q 204 73 215 65 "},"H":{"x_min":48.609375,"x_max":686.171875,"ha":681,"o":"m 490 629 q 487 665 486 650 q 502 705 488 691 q 551 709 520 720 q 584 673 570 702 q 598 622 593 652 q 601 573 602 595 q 598 554 601 561 q 586 536 594 540 q 522 526 566 525 q 462 536 483 527 q 413 573 426 548 q 419 622 401 601 q 490 629 444 650 m 234 361 q 269 361 254 362 q 308 343 295 356 q 309 293 322 323 q 270 262 301 273 q 219 252 250 255 q 169 252 193 250 q 151 256 158 254 q 133 270 137 261 q 129 334 123 291 q 143 394 133 372 q 184 438 158 429 q 231 429 212 450 q 234 361 256 402 m 658 898 q 672 459 658 751 q 686 20 686 166 q 678 3 686 11 q 661 -4 670 -4 q 643 3 651 -4 q 636 20 636 11 q 622 465 636 166 q 366 462 536 465 q 112 459 195 459 q 126 16 126 162 q 118 0 126 6 q 101 -8 111 -8 q 84 0 91 -8 q 76 16 76 6 q 62 454 76 162 q 48 894 48 747 q 56 911 48 904 q 73 919 63 919 q 90 911 83 919 q 98 894 98 904 q 109 509 98 751 q 364 512 194 509 q 619 515 534 515 q 608 898 608 755 q 616 916 608 908 q 633 923 623 923 q 650 916 643 923 q 658 898 658 908 m 512 573 q 477 598 493 591 q 454 604 461 605 q 444 600 447 602 q 444 588 440 595 q 473 566 450 575 q 523 559 490 561 q 566 563 552 558 q 568 575 568 568 q 565 618 569 594 q 554 661 561 643 q 540 679 547 676 q 530 681 534 680 q 526 680 526 682 l 525 680 q 520 663 520 676 q 529 607 519 638 q 530 601 530 604 l 534 595 q 535 572 547 584 q 512 573 523 561 m 176 341 q 203 374 195 358 q 210 397 211 390 q 206 406 209 404 q 197 408 204 411 q 173 380 183 402 q 162 330 165 363 q 162 287 158 302 q 173 286 166 287 q 216 286 193 283 q 259 294 243 287 q 279 306 276 300 q 281 322 284 318 q 265 327 277 326 q 208 322 240 330 l 204 322 l 198 316 q 175 318 186 305 q 176 341 163 330 "},"c":{"x_min":33.3125,"x_max":539.1875,"ha":526,"o":"m 251 165 q 259 200 254 186 q 287 231 269 225 q 334 220 309 241 q 355 176 351 208 q 352 123 358 154 q 340 76 348 97 q 330 58 336 65 q 313 44 323 47 q 283 47 301 41 q 250 56 268 50 q 197 84 213 70 q 162 136 166 106 q 183 180 158 166 q 251 165 215 198 m 463 425 q 380 591 444 544 q 256 607 326 630 q 134 497 186 581 q 83 291 81 412 q 139 117 84 187 q 268 34 194 47 q 405 72 343 20 q 488 248 468 125 q 499 264 490 258 q 518 269 508 270 q 534 259 527 268 q 538 240 540 250 q 436 33 515 98 q 259 -15 356 -33 q 100 86 166 1 q 33 291 34 169 q 91 523 31 425 q 240 654 151 622 q 409 632 334 687 q 513 433 490 572 q 509 414 515 423 q 493 404 502 405 q 474 409 483 402 q 463 425 465 415 m 254 104 q 229 140 243 127 q 210 152 216 152 q 200 151 204 151 q 195 140 194 148 q 216 109 197 125 q 262 87 230 100 q 290 79 277 81 q 302 77 298 77 q 308 88 305 80 q 319 129 315 105 q 322 173 323 154 q 315 195 320 190 q 306 200 309 198 q 301 201 302 201 l 300 201 q 291 187 295 200 q 281 130 281 163 q 280 125 281 127 l 284 118 q 276 95 291 102 q 254 104 261 88 "},"&":{"x_min":28.78125,"x_max":602.3125,"ha":536,"o":"m 344 880 q 341 850 341 865 q 343 813 341 834 q 345 784 344 793 q 350 746 345 775 q 355 712 354 718 q 350 694 356 702 q 334 684 344 686 q 315 689 323 683 q 305 707 306 695 q 301 738 305 709 q 295 777 297 766 q 293 810 294 787 q 291 851 291 833 q 294 886 291 869 q 304 903 295 897 q 322 908 312 909 q 339 898 333 907 q 344 880 345 890 m 490 638 q 419 627 469 644 q 315 579 369 611 q 225 512 258 547 q 191 461 202 491 l 195 461 q 252 466 215 458 q 338 502 298 490 q 398 516 373 515 q 450 505 431 519 q 459 480 462 495 q 448 465 456 470 q 441 461 445 462 q 431 458 437 459 q 409 454 423 456 q 394 452 402 454 q 380 450 386 451 q 375 448 375 450 q 361 445 372 448 l 334 437 q 270 419 298 426 q 225 393 247 406 q 112 305 152 350 q 79 237 72 261 q 137 225 86 216 q 291 275 194 233 q 458 355 359 304 l 566 411 q 586 411 576 415 q 600 399 595 408 q 600 380 604 390 q 588 366 597 370 l 566 355 l 525 333 l 481 311 q 312 229 383 259 q 144 175 208 184 q 31 223 50 161 q 75 338 16 275 q 168 416 109 377 q 158 422 162 418 q 140 458 140 436 q 188 548 141 500 q 288 622 226 586 q 404 675 350 657 q 504 686 468 695 q 518 675 513 684 q 521 656 523 666 q 510 641 519 645 q 490 638 501 636 m 440 206 q 455 83 440 140 q 453 64 458 73 q 438 52 448 55 q 420 54 429 50 q 408 69 411 59 q 390 206 390 134 q 397 224 390 216 q 415 231 405 231 q 432 224 425 231 q 440 206 440 216 "},"I":{"x_min":25.453125,"x_max":472.265625,"ha":451,"o":"m 106 166 q 104 202 102 187 q 119 243 105 229 q 168 247 137 258 q 201 211 187 240 q 215 159 209 190 q 218 111 219 133 q 215 91 218 98 q 202 73 211 77 q 138 63 183 62 q 79 73 100 65 q 30 111 43 86 q 36 159 18 138 q 106 166 61 187 m 69 918 q 251 915 138 912 q 437 919 423 919 q 454 911 447 919 q 462 894 462 904 q 454 877 462 884 q 437 869 447 869 q 268 865 408 869 q 265 718 268 818 q 263 541 263 619 q 268 395 263 476 q 280 54 281 127 q 448 48 363 54 q 466 40 459 48 q 472 21 472 31 q 463 4 472 11 q 445 -1 455 -1 q 265 4 354 4 q 255 2 261 2 q 245 4 250 2 q 58 -1 148 4 q 40 4 48 -1 q 32 21 33 11 q 38 39 31 31 q 55 48 44 47 q 230 54 138 54 q 218 393 231 125 q 213 541 213 473 q 215 717 213 618 q 218 863 218 816 q 66 868 130 863 q 48 877 55 869 q 43 895 41 884 q 52 912 44 905 q 69 918 59 919 m 129 111 q 93 136 109 129 q 70 141 77 143 q 61 137 63 140 q 61 126 56 133 q 90 104 66 112 q 140 97 106 98 q 183 100 175 95 q 184 112 184 104 q 181 155 186 131 q 170 198 177 180 q 156 216 163 213 q 147 218 151 218 q 143 218 143 219 l 141 218 q 137 201 137 213 q 145 144 136 176 q 147 138 147 141 l 151 133 q 152 110 163 122 q 129 111 140 98 "},"G":{"x_min":34.3125,"x_max":717.734375,"ha":695,"o":"m 311 169 q 316 204 312 188 q 340 238 323 230 q 390 233 362 251 q 412 190 406 222 q 413 137 416 168 q 405 88 412 109 q 397 69 401 76 q 380 54 390 58 q 316 61 361 48 q 262 84 280 72 q 225 131 230 104 q 240 177 218 161 q 311 169 270 200 m 716 300 q 698 25 669 120 q 696 6 701 15 q 682 -5 691 -2 q 663 -3 672 -8 q 651 11 654 1 q 661 281 620 112 l 633 280 q 550 81 612 161 q 401 -18 487 2 q 225 15 311 -38 q 83 197 138 70 q 36 402 45 279 q 51 645 27 525 q 88 758 65 707 q 146 852 111 809 q 233 918 181 895 q 348 938 284 941 q 513 879 450 934 q 629 726 577 825 q 630 707 633 718 q 618 693 627 697 q 599 691 609 688 q 584 704 588 694 q 484 839 537 793 q 345 888 430 886 q 187 823 248 893 q 100 634 126 754 q 86 406 77 520 q 127 216 95 291 q 248 59 177 104 q 390 30 319 13 q 509 111 456 47 q 581 279 561 176 q 454 283 508 276 q 436 293 443 284 q 431 311 430 301 q 441 328 433 322 q 459 333 450 334 q 502 329 481 330 q 549 327 523 327 q 589 328 575 327 q 636 331 604 329 q 680 333 669 333 q 690 331 686 333 q 700 330 694 331 q 714 320 709 329 q 716 300 719 311 m 319 109 q 290 143 304 131 q 270 152 276 154 q 259 151 263 151 q 256 138 255 147 q 279 112 259 125 q 326 93 294 102 q 369 86 355 84 l 373 98 q 381 140 379 116 q 380 184 383 166 q 370 205 377 201 q 356 211 361 212 q 348 195 352 208 q 344 137 341 169 l 344 131 l 347 126 q 342 103 356 112 q 319 109 327 94 "},"(":{"x_min":45.890625,"x_max":410.859375,"ha":354,"o":"m 394 943 q 245 824 311 916 q 138 602 179 732 q 95 355 101 479 q 116 154 90 231 q 215 -27 152 47 q 383 -172 279 -101 q 393 -188 391 -177 q 390 -206 395 -198 q 374 -217 384 -215 q 355 -213 363 -219 q 177 -58 245 -138 q 69 137 108 22 q 47 358 40 227 q 91 616 52 488 q 206 856 133 754 q 377 990 279 958 q 397 988 388 993 q 409 974 406 984 q 408 954 412 963 q 394 943 404 945 "},"`":{"x_min":48.734375,"x_max":269.703125,"ha":217,"o":"m 94 991 q 136 932 112 963 q 170 886 159 900 q 220 827 181 872 q 263 779 259 783 q 269 760 270 770 q 260 743 268 750 q 242 737 252 736 q 225 745 231 738 l 190 786 l 151 830 q 119 870 138 845 l 83 919 q 52 963 66 941 q 49 983 47 973 q 60 998 51 993 q 79 1002 69 1004 q 94 991 88 1000 "},"U":{"x_min":36.109375,"x_max":685.015625,"ha":696,"o":"m 326 145 q 333 181 327 166 q 358 215 341 206 q 406 208 380 227 q 429 165 423 195 q 429 112 431 141 q 419 63 426 84 q 411 45 415 52 q 394 30 404 33 q 330 38 373 25 q 275 62 294 50 q 238 112 244 84 q 256 156 233 141 q 326 145 287 176 m 90 909 q 90 736 93 858 q 86 523 86 552 q 134 176 86 261 q 238 69 159 130 q 334 28 275 41 q 436 26 393 15 q 566 154 519 50 q 622 401 605 244 q 632 679 632 497 q 634 898 632 862 q 643 916 636 909 q 661 922 651 923 q 679 913 672 920 q 684 895 686 905 q 682 679 682 861 q 672 395 682 491 q 612 133 655 231 q 450 -20 555 6 q 324 -20 394 -36 q 208 30 254 -4 q 90 151 120 97 q 36 523 36 248 q 40 736 36 554 q 40 907 43 857 q 47 925 40 916 q 63 933 54 933 q 81 926 73 933 q 90 909 90 919 m 333 86 q 305 119 319 108 q 284 129 291 130 q 275 129 277 129 q 270 118 269 126 q 294 90 273 104 q 340 70 308 80 q 383 62 369 61 q 387 73 384 66 q 395 115 393 91 q 395 159 398 141 q 387 180 393 176 q 379 186 381 184 l 375 187 l 373 186 q 365 170 369 183 q 358 112 356 147 l 358 108 l 361 102 q 355 80 369 88 q 333 86 341 72 "},"F":{"x_min":80.5625,"x_max":640.328125,"ha":522,"o":"m 248 616 q 245 652 244 637 q 261 693 247 679 q 309 697 279 708 q 343 661 329 690 q 356 609 351 640 q 359 561 361 583 q 356 541 359 548 q 344 523 352 527 q 280 513 325 512 q 220 523 241 515 q 172 561 184 536 q 177 609 159 588 q 248 616 202 637 m 147 511 q 302 512 198 511 q 456 513 405 513 q 474 506 466 513 q 481 488 481 498 q 474 471 481 479 q 456 463 466 463 q 302 462 405 463 q 147 461 198 461 l 144 461 q 158 20 158 166 q 150 3 158 11 q 133 -4 143 -4 q 115 3 123 -4 q 108 20 108 11 q 94 458 108 166 q 80 895 80 750 l 80 898 q 88 916 80 908 q 105 923 95 923 q 116 920 111 923 q 364 918 198 920 q 615 915 530 915 q 632 907 625 915 q 640 890 640 900 q 632 872 640 880 q 615 865 625 865 q 368 868 530 865 q 130 870 206 870 q 141 511 131 737 l 147 511 m 270 561 q 235 586 251 579 q 212 591 219 593 q 202 587 205 590 q 202 576 198 583 q 231 554 208 562 q 281 547 248 548 q 325 551 311 545 q 326 562 326 555 q 323 605 327 581 q 312 648 319 630 q 298 666 305 663 q 288 668 293 668 q 284 668 284 669 l 283 668 q 279 651 279 663 q 287 594 277 626 q 288 588 288 591 l 293 583 q 293 560 305 572 q 270 561 281 548 "},"r":{"x_min":31.671875,"x_max":384.75,"ha":374,"o":"m 100 480 q 102 240 108 447 q 97 24 97 33 q 89 7 97 15 q 72 0 81 0 q 54 7 62 0 q 47 23 47 15 q 52 202 47 58 q 53 445 56 347 q 31 611 50 543 q 36 629 30 620 q 51 639 41 637 q 70 636 61 641 q 81 622 79 632 q 90 579 86 601 q 122 615 104 598 q 255 652 175 658 q 295 641 273 651 q 333 616 322 632 q 375 511 362 581 q 384 405 380 477 q 377 388 384 397 q 361 380 370 380 q 343 387 351 380 q 334 402 334 394 q 325 504 330 472 q 294 587 315 561 q 275 597 290 591 q 252 604 261 604 q 155 577 191 608 q 104 488 119 548 q 100 480 104 483 m 205 508 q 202 543 202 527 q 219 583 204 569 q 268 587 237 598 q 300 551 287 580 q 313 500 309 530 q 316 451 318 473 q 313 431 316 438 q 301 413 309 418 q 268 405 287 405 q 254 406 263 405 l 241 406 q 156 430 187 406 q 131 484 126 454 q 147 508 134 500 q 177 516 159 516 q 205 508 191 515 m 227 451 q 175 483 197 480 q 165 477 165 483 q 165 472 163 476 q 171 462 166 468 q 184 452 176 456 q 206 443 191 447 q 241 440 222 440 l 255 440 q 268 438 263 438 q 281 440 276 438 q 283 452 283 445 q 280 495 284 472 q 269 538 277 520 q 256 556 263 554 q 241 558 244 561 q 236 541 237 554 q 245 484 234 513 q 247 477 247 481 l 250 473 q 250 450 262 462 q 227 451 238 438 "},":":{"x_min":43.75,"x_max":236.640625,"ha":238,"o":"m 130 579 q 143 627 130 608 q 169 646 154 641 q 200 643 184 651 q 225 577 229 625 q 176 462 220 527 q 155 456 168 451 l 150 456 q 83 496 112 468 q 45 552 54 525 q 45 580 41 569 q 70 600 51 597 q 130 579 93 601 m 134 537 l 129 540 q 76 566 94 563 q 77 562 77 565 q 105 522 83 544 q 155 490 127 500 q 191 580 188 543 q 183 613 194 607 q 170 608 177 618 q 166 547 158 588 q 152 527 169 531 q 134 537 140 525 m 166 11 q 202 100 200 62 q 194 133 205 126 q 181 127 188 137 q 177 66 169 108 q 163 47 180 51 q 144 59 148 44 q 94 84 111 83 q 95 80 95 83 q 121 43 101 63 q 166 11 141 22 m 141 101 q 154 147 143 129 q 180 165 165 161 q 211 162 195 170 q 236 97 240 144 q 187 -18 231 47 q 173 -25 181 -25 l 168 -25 q 101 14 130 -13 q 63 70 72 43 q 63 98 59 87 q 88 118 69 115 q 141 101 108 119 "},"x":{"x_min":21.984375,"x_max":560.515625,"ha":542,"o":"m 319 319 q 538 33 444 147 q 544 14 545 25 q 535 -2 543 4 q 517 -8 527 -9 q 500 0 506 -6 q 286 279 412 105 l 66 8 q 49 0 59 1 q 31 5 38 -1 q 22 22 23 12 q 27 41 20 33 l 256 320 q 40 615 102 534 q 34 634 33 623 q 44 650 36 644 q 63 655 52 657 q 79 645 73 654 q 288 361 144 562 l 518 633 q 534 641 523 640 q 552 635 544 641 q 560 618 559 629 q 554 600 561 608 l 319 319 m 323 591 q 354 612 337 604 q 395 618 376 622 q 429 581 420 611 q 418 537 433 563 q 383 495 405 516 q 344 463 363 476 q 326 454 334 456 q 302 454 312 450 q 277 479 291 461 q 254 516 265 494 q 229 590 229 565 q 250 637 230 625 q 294 634 270 650 q 323 591 315 620 m 293 538 q 292 581 298 563 q 275 607 286 600 l 268 609 q 262 590 262 605 q 284 531 262 573 q 304 500 294 512 q 315 486 313 487 q 326 491 319 487 q 359 519 343 501 q 388 554 379 537 q 395 573 397 568 q 387 584 393 583 q 368 581 379 587 q 344 565 354 576 q 333 547 334 554 q 326 536 331 540 l 326 533 q 306 520 322 516 q 293 538 290 523 "},"*":{"x_min":37.546875,"x_max":485.296875,"ha":453,"o":"m 270 847 q 312 909 288 883 q 379 948 344 943 q 459 920 422 957 q 481 823 494 886 q 438 716 472 777 q 325 552 402 652 q 318 544 322 547 q 301 536 311 536 q 284 544 291 536 l 283 544 q 280 545 281 544 q 244 572 280 547 l 179 619 q 126 663 150 640 q 55 745 77 707 q 44 844 26 800 q 109 907 65 893 q 194 901 150 919 q 268 847 237 884 l 269 847 l 270 847 "},"V":{"x_min":58.625,"x_max":762.046875,"ha":708,"o":"m 543 838 q 548 873 544 858 q 573 908 556 900 q 622 901 594 919 q 644 858 638 888 q 645 805 648 836 q 637 757 644 779 q 629 738 633 745 q 612 723 622 726 q 548 732 591 718 q 493 755 512 743 q 456 804 462 777 q 473 850 450 834 q 543 838 505 869 m 373 456 q 409 469 393 466 q 451 463 436 475 q 468 418 472 450 q 441 377 465 397 q 395 351 422 363 q 348 336 370 340 q 327 333 336 333 q 308 341 315 333 q 279 416 286 362 q 286 495 273 468 q 322 533 300 527 q 363 515 347 538 q 373 456 377 491 m 106 905 l 155 744 l 216 552 q 270 391 241 472 q 381 76 365 130 q 715 909 568 600 q 729 921 719 918 q 747 920 738 925 q 760 907 757 916 q 759 887 763 897 q 405 -8 609 570 q 391 -23 401 -18 q 386 -25 388 -25 q 367 -22 376 -27 q 355 -8 358 -18 q 325 92 343 37 q 294 180 306 147 l 256 283 l 223 375 q 169 536 195 450 l 108 729 l 59 891 q 61 910 56 901 q 75 922 65 919 q 95 920 86 925 q 106 905 104 916 m 550 779 q 522 812 536 801 q 502 822 508 823 q 491 822 495 822 q 488 811 487 819 q 512 783 491 797 q 558 762 527 772 q 601 755 587 754 q 605 766 602 759 q 612 808 611 784 q 612 852 615 834 q 602 873 608 869 q 594 879 598 877 q 590 879 590 880 l 588 879 q 580 863 584 876 q 576 807 573 840 q 575 800 576 802 l 577 795 q 572 773 586 782 q 550 779 558 765 m 326 422 q 341 468 340 445 q 336 497 341 491 l 330 500 q 316 481 323 498 q 312 420 308 462 q 329 366 316 383 q 341 368 333 366 q 381 381 359 372 q 420 404 405 391 q 435 421 434 415 q 435 431 436 427 q 433 436 434 434 l 433 437 q 416 437 429 438 q 362 413 393 431 q 358 411 361 412 q 354 405 356 408 q 331 400 345 391 q 326 422 318 408 "},"h":{"x_min":20.828125,"x_max":478.046875,"ha":476,"o":"m 297 106 q 294 143 293 127 q 308 183 294 170 q 358 187 326 200 q 388 154 376 181 q 405 104 400 133 q 411 54 412 76 q 408 31 411 41 q 394 13 404 19 q 331 4 376 2 q 270 12 290 5 q 222 50 234 25 q 227 98 208 77 q 297 106 252 127 m 184 744 q 219 757 204 752 q 261 751 245 762 q 279 705 281 738 q 254 666 277 687 q 209 638 236 652 q 161 622 183 626 q 140 619 150 619 q 118 629 126 620 q 94 687 102 644 q 87 747 84 725 q 112 804 91 786 q 161 811 136 825 q 184 744 193 793 m 84 972 q 77 762 84 900 q 70 561 70 625 l 70 537 q 195 618 122 598 q 315 616 256 636 q 411 536 373 595 q 445 430 430 505 q 466 280 458 370 q 472 12 486 91 q 461 -3 470 2 q 443 -8 452 -9 q 427 2 433 -6 q 422 20 420 11 q 416 276 434 95 q 395 420 408 359 q 369 508 383 487 q 297 568 340 554 q 208 570 255 583 q 125 522 162 556 q 72 443 87 488 l 72 441 q 75 291 72 434 q 75 20 80 123 q 67 4 75 11 q 49 -2 59 -2 q 31 4 38 -2 q 25 23 25 12 q 25 290 30 123 q 20 561 20 494 q 27 762 20 625 q 34 972 34 900 q 42 989 34 982 q 59 997 50 997 q 77 989 69 997 q 84 972 84 982 m 319 51 q 284 76 300 69 q 261 81 268 83 q 252 76 255 80 q 251 65 248 72 q 281 43 258 51 q 331 37 297 38 q 376 41 363 36 q 377 54 377 45 q 373 97 377 72 q 359 138 368 122 q 347 156 351 155 q 337 159 341 158 q 331 158 333 159 q 327 141 327 155 q 337 84 326 116 q 338 77 338 81 l 341 73 q 342 50 354 62 q 319 51 330 38 m 137 709 q 152 749 150 732 q 151 772 154 766 q 144 782 148 779 q 134 779 140 784 q 120 744 123 769 q 126 694 119 727 q 141 652 133 663 q 154 654 147 652 q 194 669 172 658 q 231 693 218 680 q 245 708 245 704 l 245 718 q 244 723 245 722 l 243 723 q 226 723 238 726 q 172 700 202 718 q 168 697 170 698 l 165 693 q 143 687 156 679 q 137 709 129 695 "},"0":{"x_min":55.234375,"x_max":613.234375,"ha":594,"o":"m 443 630 q 268 654 345 680 q 131 501 176 623 q 104 333 105 418 q 137 170 104 248 q 229 51 170 91 q 419 25 334 -20 q 537 188 497 68 q 562 351 561 270 q 534 506 563 431 q 450 622 505 581 q 443 630 445 626 m 550 587 q 611 386 604 504 q 584 173 619 268 q 443 -18 537 33 q 201 9 331 -79 q 111 109 147 47 q 63 240 76 170 q 56 382 51 309 q 84 518 62 455 q 252 701 138 663 q 547 623 384 745 q 556 607 555 618 q 551 588 558 597 l 550 587 m 309 143 q 306 179 305 163 q 322 219 308 205 q 370 223 340 234 q 404 187 390 216 q 418 136 412 166 q 420 87 422 109 q 418 68 420 75 q 405 50 413 54 q 341 40 386 38 q 281 50 302 41 q 233 87 245 62 q 238 136 220 115 q 309 143 263 163 m 331 87 q 296 112 312 105 q 273 118 280 119 q 263 113 266 116 q 263 102 259 109 q 293 80 269 88 q 343 73 309 75 q 386 76 377 72 q 387 88 387 80 q 384 131 388 108 q 373 175 380 156 q 359 193 366 190 q 350 195 354 194 q 345 194 345 195 l 344 194 q 340 177 340 190 q 348 120 338 152 q 350 115 350 118 l 354 109 q 354 86 366 98 q 331 87 343 75 "},".":{"x_min":47.734375,"x_max":278.171875,"ha":278,"o":"m 154 138 q 180 177 161 161 q 247 200 212 206 q 275 176 268 195 q 273 134 281 159 q 181 9 256 86 q 179 5 180 6 q 166 0 173 0 q 154 5 158 0 q 151 8 151 6 q 126 26 144 13 q 101 44 108 38 q 50 101 58 75 q 63 148 41 131 q 109 155 80 159 q 154 138 131 151 "},"”":{"x_min":37.875,"x_max":403.640625,"ha":349,"o":"m 123 973 q 173 854 161 918 q 163 725 187 790 q 73 625 140 659 q 55 623 65 620 q 40 635 45 626 q 38 654 36 644 q 51 669 41 663 q 117 742 98 694 q 125 843 136 790 q 81 945 115 897 q 78 964 76 954 q 88 980 80 975 q 107 984 97 986 q 123 973 118 982 m 337 965 q 393 854 376 911 q 397 735 411 797 q 334 622 384 673 q 316 615 326 615 q 299 622 306 615 q 291 640 291 630 q 298 658 291 650 q 348 745 337 697 q 345 840 359 793 q 295 937 330 887 q 292 955 290 945 q 302 971 294 965 q 320 975 311 977 q 337 965 330 973 "},"@":{"x_min":27.734375,"x_max":882.015625,"ha":879,"o":"m 541 429 l 541 430 q 541 436 541 431 q 540 441 540 440 q 541 461 538 452 q 555 477 545 472 q 515 579 552 527 q 477 605 498 602 q 430 591 456 608 q 319 454 370 552 q 263 259 268 351 q 318 127 261 163 q 375 127 345 111 q 437 193 405 144 q 522 369 480 256 q 541 429 538 412 m 544 290 q 479 165 512 215 q 400 83 440 106 q 290 86 344 52 q 213 261 209 136 q 275 476 218 363 q 402 633 331 587 q 483 655 444 659 q 556 607 526 650 q 599 518 588 561 q 602 420 609 476 q 594 404 601 411 q 595 287 590 315 q 618 227 600 259 q 658 176 636 195 q 700 159 680 158 q 743 188 722 161 q 826 477 811 281 q 827 501 826 481 q 829 526 829 520 q 831 548 830 531 q 832 572 832 565 l 832 594 q 831 617 832 608 q 829 638 830 626 q 825 661 827 650 l 819 680 q 688 845 779 802 q 498 858 608 884 q 298 759 394 832 q 155 597 202 686 q 85 392 102 497 q 90 180 68 287 q 180 -12 113 73 q 386 -154 262 -118 q 629 -146 509 -190 q 819 11 750 -102 q 834 22 823 20 q 853 20 844 25 q 864 4 862 15 q 861 -13 866 -5 q 707 -165 802 -112 q 510 -220 611 -218 q 309 -176 409 -222 q 141 -43 209 -130 q 42 169 68 51 q 36 400 16 287 q 111 619 55 513 q 268 799 163 719 q 486 907 372 879 q 709 891 613 937 q 866 697 820 838 q 882 583 882 648 q 876 475 882 518 q 782 158 861 263 q 702 109 747 112 q 626 138 663 106 q 575 203 597 163 q 545 279 552 243 q 544 290 545 284 "},"f":{"x_min":42.53125,"x_max":516.546875,"ha":453,"o":"m 119 757 q 122 791 118 775 q 143 829 127 816 q 190 833 162 845 q 218 797 206 826 q 230 745 226 775 q 234 695 236 718 q 230 675 233 683 q 216 657 226 662 q 154 650 197 647 q 93 661 113 652 q 47 701 58 675 q 55 750 34 729 q 119 757 79 773 m 83 633 q 244 627 148 625 q 250 841 244 744 q 283 943 254 898 q 355 1004 312 987 q 446 1002 402 1023 q 515 920 490 980 q 514 901 518 911 q 501 888 511 891 q 481 888 491 884 q 468 901 472 891 q 425 957 451 944 q 373 958 400 969 q 324 914 345 947 q 300 838 302 882 q 294 629 294 743 q 472 632 422 633 q 488 624 481 632 q 495 606 495 616 q 488 588 495 595 q 469 581 480 581 q 295 579 420 583 q 300 426 297 515 q 312 11 312 26 q 304 -6 312 1 q 287 -13 297 -13 q 270 -6 277 -13 q 262 11 262 1 q 250 425 262 30 q 245 577 247 512 q 77 583 145 575 q 60 593 66 584 q 55 611 54 601 q 65 628 56 622 q 83 633 73 634 m 144 698 q 111 723 127 716 q 88 729 95 730 q 79 725 81 729 q 77 713 75 720 q 106 691 83 701 q 155 683 122 686 q 200 686 186 682 q 201 697 200 690 q 198 741 202 716 q 187 784 194 766 q 176 802 180 801 q 163 802 168 807 q 154 783 158 797 q 154 754 151 769 q 159 737 155 741 q 165 725 165 732 l 169 720 q 168 697 180 709 q 144 698 156 686 "},";":{"x_min":20.96875,"x_max":193.53125,"ha":190,"o":"m 115 576 q 145 601 130 591 q 181 602 168 612 q 193 583 191 597 q 191 561 194 575 q 161 504 184 534 q 130 459 136 469 q 108 451 122 444 q 98 468 98 456 q 36 529 47 497 q 51 581 22 562 q 102 586 76 598 q 115 576 109 581 m 98 126 q 168 51 151 98 q 170 -48 184 4 q 128 -136 159 -94 q 58 -202 97 -179 q 40 -206 50 -208 q 25 -195 30 -204 q 21 -176 19 -186 q 33 -161 23 -166 q 88 -107 63 -141 q 123 -36 113 -73 q 76 81 144 45 q 63 97 66 87 q 65 115 61 106 q 80 127 70 125 q 98 126 90 130 "},"“":{"x_min":40.046875,"x_max":415.3125,"ha":350,"o":"m 195 951 q 132 888 161 929 q 94 805 104 848 q 98 729 84 761 q 154 679 112 694 q 168 666 163 675 q 168 647 172 657 q 156 633 165 637 q 137 632 147 629 q 51 709 75 655 q 45 816 31 757 q 92 917 58 868 q 168 993 126 966 q 187 996 177 998 q 202 985 197 994 q 206 966 208 976 q 195 951 204 957 m 406 948 q 327 793 336 879 q 391 651 319 707 q 402 635 400 645 q 398 616 404 625 q 382 606 393 608 q 363 609 372 604 q 281 727 297 655 q 293 867 266 800 q 373 984 320 934 q 391 991 380 991 q 408 984 401 991 q 415 966 415 976 q 406 948 415 955 "},"i":{"x_min":26.84375,"x_max":219.8125,"ha":182,"o":"m 108 915 q 105 951 104 936 q 120 991 106 977 q 169 995 138 1007 q 202 959 188 988 q 216 908 211 938 q 219 859 220 882 q 216 840 219 847 q 204 822 212 826 q 140 812 184 811 q 80 822 101 813 q 31 859 44 834 q 37 908 19 887 q 108 915 62 936 m 165 616 q 170 316 161 508 q 181 12 181 95 q 174 -4 181 2 q 156 -12 166 -12 q 139 -4 147 -12 q 131 12 131 2 q 120 313 131 94 q 115 619 111 505 q 122 636 115 629 q 140 643 130 643 q 158 635 151 643 q 165 616 165 627 m 130 859 q 95 884 111 877 q 72 890 79 891 q 62 886 65 888 q 62 875 58 882 q 91 852 68 861 q 141 845 108 847 q 184 848 176 844 q 186 861 186 852 q 183 904 187 880 q 172 947 179 929 q 158 965 165 962 q 148 967 152 966 q 144 966 144 968 l 143 966 q 138 950 138 962 q 147 893 137 925 q 148 887 148 890 l 152 882 q 153 859 165 870 q 130 859 141 847 "},"6":{"x_min":81.328125,"x_max":676.25,"ha":592,"o":"m 131 255 q 140 193 133 222 q 337 19 172 48 q 505 79 426 2 q 612 263 581 151 q 607 452 643 376 q 461 533 569 533 q 241 445 333 533 q 180 366 204 408 q 134 261 156 323 l 131 255 m 288 145 q 286 181 284 166 q 301 222 287 208 q 350 226 319 237 q 383 190 369 219 q 397 138 391 169 q 400 90 401 112 q 397 70 400 77 q 384 52 393 56 q 320 43 365 41 q 261 52 281 44 q 212 90 225 65 q 218 138 200 118 q 288 145 243 166 m 570 907 q 482 890 533 916 q 376 805 431 863 q 187 509 258 684 q 155 420 168 465 q 208 481 177 454 q 461 583 313 583 q 652 473 600 583 q 659 251 695 381 q 540 43 626 125 q 329 -30 443 -50 q 90 183 130 5 q 140 529 58 329 q 340 840 215 711 q 581 957 476 980 q 597 945 591 954 q 600 926 602 936 q 589 911 598 916 q 570 907 580 905 m 311 90 q 275 115 291 108 q 252 120 259 122 q 243 116 245 119 q 243 105 238 112 q 272 83 248 91 q 322 76 288 77 q 365 79 356 75 q 366 91 366 83 q 363 134 368 111 q 352 177 359 159 q 338 195 345 193 q 329 197 333 197 q 325 197 325 198 l 323 197 q 319 180 319 193 q 327 123 318 155 q 329 118 329 120 l 333 112 q 334 89 345 101 q 311 90 322 77 "},"A":{"x_min":46.21875,"x_max":716.4375,"ha":731,"o":"m 198 375 q 554 393 430 391 l 452 702 q 444 729 451 707 q 430 778 438 751 q 413 829 422 805 q 386 887 398 868 l 380 873 l 348 790 l 327 732 l 308 680 q 300 658 301 661 q 198 375 247 526 m 354 519 q 351 555 350 540 q 366 595 352 581 q 415 600 384 611 q 448 563 434 593 q 462 512 456 543 q 465 463 466 486 q 462 444 465 451 q 450 426 458 430 q 386 416 430 415 q 326 426 347 418 q 277 463 290 438 q 283 512 265 491 q 354 519 308 540 m 47 25 q 252 677 143 397 q 261 700 254 680 l 280 750 l 301 808 l 334 891 q 345 920 341 911 q 350 930 348 926 q 352 934 351 933 q 362 944 356 941 q 404 941 383 955 q 427 916 416 933 q 459 845 443 893 q 477 795 468 823 q 491 745 486 768 q 500 719 498 725 q 626 327 612 373 q 669 166 637 295 q 715 11 694 68 q 713 -7 718 1 q 700 -20 709 -16 q 681 -19 690 -23 q 668 -5 672 -15 q 629 123 648 47 q 627 115 629 119 q 609 65 623 93 q 583 23 597 41 q 569 9 575 13 q 548 1 558 0 q 479 41 518 4 q 431 105 441 76 q 436 155 423 137 q 478 170 451 176 q 525 133 505 163 q 543 165 533 152 q 579 187 559 186 q 616 170 600 190 q 579 313 591 272 l 569 343 q 198 325 443 343 q 184 329 191 325 q 94 13 138 180 q 84 -2 93 2 q 64 -4 75 -6 q 49 6 54 -2 q 47 25 44 15 m 376 463 q 341 488 356 481 q 318 494 325 495 q 308 490 311 493 q 308 479 304 486 q 337 456 313 465 q 387 450 354 451 q 430 454 416 448 q 431 465 431 458 q 429 508 433 484 q 418 551 425 533 q 404 569 411 566 q 394 571 398 570 q 390 570 390 572 l 388 570 q 384 554 384 566 q 393 497 383 529 q 394 491 394 494 l 398 486 q 399 463 411 475 q 376 463 387 451 m 509 75 q 493 118 505 102 q 470 137 481 134 q 463 137 465 138 q 465 113 459 130 q 501 65 470 94 q 548 34 529 40 q 556 44 551 38 q 579 80 569 59 q 594 122 591 104 q 594 144 598 138 q 588 152 591 150 l 584 154 l 583 154 q 569 144 577 154 q 543 91 554 125 q 541 87 543 90 q 543 80 541 84 q 529 61 545 63 q 509 75 512 58 "},"‘":{"x_min":54.90625,"x_max":196.734375,"ha":196,"o":"m 181 925 q 133 879 154 911 q 106 807 112 847 q 112 735 100 768 q 152 687 125 702 q 163 672 161 682 q 161 653 166 662 q 147 641 156 644 q 127 643 137 638 q 66 715 83 668 q 56 815 50 762 q 91 908 63 865 q 162 969 119 951 q 180 970 170 973 q 194 957 190 966 q 195 938 198 948 q 181 925 191 929 "},"n":{"x_min":21.984375,"x_max":469.8125,"ha":478,"o":"m 84 418 l 84 369 l 84 312 q 72 12 84 126 q 62 -4 70 2 q 44 -9 54 -11 q 27 0 34 -8 q 22 18 20 8 q 34 312 34 129 q 37 611 34 547 q 45 627 37 620 q 63 634 52 634 q 80 627 73 634 q 87 608 87 619 q 84 518 86 566 q 248 626 154 613 q 395 554 340 637 q 455 373 437 493 q 465 13 477 231 q 456 -2 465 4 q 438 -9 448 -9 q 422 -1 429 -9 q 415 16 415 6 q 405 366 427 229 q 354 526 388 475 q 254 576 315 584 q 84 418 155 563 m 194 104 q 230 105 215 106 q 269 88 256 102 q 272 38 284 69 q 236 9 265 22 q 186 -2 215 1 q 136 -5 158 -6 q 115 -1 123 -4 q 97 12 102 2 q 93 34 93 19 q 91 62 91 45 q 94 106 91 88 q 126 170 100 148 q 180 181 152 193 q 204 131 209 169 q 194 104 202 118 m 137 83 q 170 137 168 115 q 166 150 173 148 q 156 150 163 152 q 139 136 148 148 q 127 101 130 123 q 125 61 125 87 l 125 37 q 126 29 126 33 q 138 27 130 27 q 180 30 156 26 q 223 41 205 33 q 241 52 238 47 q 245 61 244 58 q 244 66 245 65 l 244 68 q 227 72 240 70 q 169 63 202 73 l 163 63 l 159 61 q 136 60 148 48 q 137 83 125 72 "},"O":{"x_min":23.921875,"x_max":673.21875,"ha":650,"o":"m 600 318 q 623 521 623 415 q 586 718 623 627 q 584 726 584 722 q 505 834 545 798 q 322 891 429 902 q 158 797 216 879 q 90 635 111 730 q 75 446 70 540 q 104 268 80 352 q 213 81 140 141 q 368 29 287 22 q 506 100 444 36 q 591 277 568 165 l 591 283 l 595 298 q 597 311 597 304 q 600 318 598 313 m 643 711 q 670 568 665 644 q 668 430 676 493 q 644 288 661 368 q 547 70 622 152 q 373 -20 472 -11 q 183 41 270 -30 q 56 254 97 113 q 25 443 30 345 q 42 646 19 541 q 116 825 65 751 q 316 941 188 927 q 538 870 445 954 q 640 727 588 826 q 643 711 644 720 m 313 145 q 311 181 309 166 q 326 222 312 208 q 375 226 344 237 q 408 190 394 219 q 422 138 416 169 q 425 90 426 112 q 422 70 425 77 q 409 52 418 56 q 345 43 390 41 q 286 52 306 44 q 237 90 250 65 q 243 138 225 118 q 313 145 268 166 m 336 90 q 300 115 316 108 q 277 120 284 122 q 268 116 270 119 q 268 105 263 112 q 297 83 273 91 q 347 76 313 77 q 390 79 381 75 q 391 91 391 83 q 388 134 393 111 q 377 177 384 159 q 363 195 370 193 q 354 197 358 197 q 350 197 350 198 l 348 197 q 344 180 344 193 q 352 123 343 155 q 354 118 354 120 l 358 112 q 359 89 370 101 q 336 90 347 77 "},"3":{"x_min":18.0625,"x_max":586.109375,"ha":625,"o":"m 215 -50 q 212 -13 211 -29 q 227 26 213 12 q 276 30 245 41 q 309 -5 295 23 q 323 -56 318 -26 q 326 -105 327 -83 q 323 -125 326 -118 q 311 -143 319 -138 q 247 -152 291 -154 q 187 -143 208 -151 q 138 -105 151 -130 q 144 -56 126 -77 q 215 -50 169 -29 m 337 488 q 373 504 358 500 q 416 501 400 511 q 436 456 437 490 q 412 413 436 436 q 368 384 394 398 q 322 366 344 373 q 302 363 311 363 q 281 369 288 362 q 248 441 259 390 q 248 520 237 493 q 283 561 261 554 q 323 543 306 568 q 337 488 338 522 m 94 622 q 206 686 140 668 q 337 691 273 704 q 453 631 405 677 q 511 511 501 586 q 480 366 522 415 q 418 320 459 341 q 570 163 531 287 q 561 -58 605 51 q 437 -188 525 -144 q 255 -226 350 -234 q 86 -154 155 -218 q 18 22 18 -90 q 25 39 18 31 q 43 47 33 47 q 60 39 52 47 q 68 22 68 31 q 122 -118 68 -68 q 259 -176 176 -169 q 413 -145 340 -183 q 513 -38 486 -108 q 522 148 552 54 q 400 275 491 248 q 326 276 373 281 q 240 268 252 268 q 233 269 236 268 l 225 272 q 215 293 215 280 q 222 311 215 302 q 227 315 225 312 l 234 318 q 243 319 237 318 l 270 325 q 340 343 316 334 q 443 398 420 372 q 461 505 470 430 q 418 597 454 562 q 327 643 381 632 q 220 637 275 652 q 130 586 166 622 q 112 579 122 579 q 95 586 102 579 q 87 604 87 594 q 94 622 87 613 m 237 -105 q 202 -80 218 -87 q 179 -75 186 -73 q 169 -79 172 -76 q 169 -90 165 -83 q 198 -112 175 -104 q 248 -119 215 -118 q 291 -116 283 -120 q 293 -104 293 -112 q 290 -61 294 -84 q 279 -18 286 -36 q 265 0 272 -2 q 255 2 259 1 q 251 1 251 2 l 250 1 q 245 -15 245 -2 q 254 -72 244 -40 q 255 -77 255 -75 l 259 -83 q 260 -106 272 -94 q 237 -105 248 -118 m 293 452 q 304 495 305 477 q 297 523 304 513 q 291 529 294 527 q 279 509 286 526 q 280 448 272 490 q 301 393 291 395 q 298 395 298 394 q 301 397 298 397 q 313 398 305 397 q 352 415 331 404 q 390 438 376 426 q 402 456 402 450 q 402 467 402 463 q 400 472 401 470 l 398 473 q 383 472 394 475 q 330 444 358 465 q 326 443 329 443 q 323 436 325 438 q 300 429 315 422 q 293 452 286 437 "},"]":{"x_min":74.109375,"x_max":470.90625,"ha":413,"o":"m 273 429 q 341 514 300 486 q 419 533 381 543 q 456 510 443 529 q 470 462 470 491 q 413 320 472 402 q 291 218 350 231 q 281 219 286 216 q 154 275 225 216 q 75 394 81 334 q 115 476 68 450 q 193 484 147 497 q 273 429 238 472 m 280 362 q 263 352 276 348 q 252 368 250 355 l 261 398 q 215 445 241 429 q 167 460 188 461 q 129 451 145 459 q 102 397 97 434 q 170 297 108 348 q 286 248 238 241 q 293 247 290 248 q 391 336 338 262 q 443 462 444 411 q 412 506 443 500 q 350 486 386 512 q 291 401 313 459 q 304 376 298 388 q 297 358 309 363 q 280 362 287 354 "},"m":{"x_min":45.609375,"x_max":763.21875,"ha":760,"o":"m 102 469 q 111 330 106 425 q 122 163 116 236 q 134 25 127 90 q 129 6 136 13 q 111 -2 122 -1 q 93 2 101 -4 q 84 19 86 9 q 63 306 73 119 q 45 566 52 493 q 51 585 44 577 q 68 594 58 593 q 86 588 79 595 q 95 572 94 581 l 95 570 q 195 637 134 620 q 299 634 248 651 q 381 568 350 618 q 398 536 390 554 q 593 654 506 663 q 723 511 679 644 q 762 254 758 406 q 744 22 766 101 q 732 6 741 12 q 713 3 723 1 q 698 14 704 5 q 694 33 693 23 q 712 253 716 108 q 676 494 708 398 q 587 604 641 598 q 415 479 519 612 q 427 361 425 429 q 422 151 429 320 q 414 134 422 141 q 396 127 406 127 q 379 135 386 127 q 372 154 372 143 q 377 359 379 319 q 340 540 373 487 q 282 588 318 576 q 209 589 247 600 q 143 550 170 579 q 111 483 116 522 q 102 469 109 475 m 587 122 q 594 158 588 143 q 620 191 602 183 q 669 183 641 201 q 691 138 687 170 q 690 86 694 116 q 679 37 687 59 q 670 19 675 26 q 654 5 663 8 q 590 15 632 1 q 536 40 555 27 q 500 88 505 62 q 518 134 493 119 q 587 122 548 154 m 226 472 q 263 472 247 475 q 301 454 290 469 q 302 404 316 434 q 263 373 293 384 q 211 365 241 366 q 161 368 183 363 q 141 372 150 369 q 125 386 129 377 q 122 450 116 406 q 136 508 126 487 q 177 554 151 543 q 226 544 206 565 q 226 472 251 516 m 594 62 q 566 96 580 84 q 545 106 552 108 q 534 106 538 105 q 531 95 530 102 q 555 68 534 81 q 601 47 570 56 q 641 36 636 34 l 643 37 q 647 48 644 41 q 657 90 654 66 q 658 134 661 116 q 650 155 655 151 q 634 161 638 163 q 626 147 630 159 q 619 88 618 125 l 619 84 l 622 79 q 616 56 630 65 q 594 62 602 48 m 168 455 q 197 488 188 473 q 204 511 205 504 q 201 522 204 518 q 190 523 197 526 q 166 494 176 518 q 155 445 159 477 q 154 402 151 419 q 166 400 158 401 q 208 398 184 397 q 252 405 234 400 q 272 418 269 411 q 276 427 275 423 l 276 431 l 275 433 q 259 438 272 437 q 201 434 233 443 l 194 434 l 190 430 q 166 431 177 419 q 168 455 155 444 "},"9":{"x_min":35.375,"x_max":620.5625,"ha":640,"o":"m 559 218 q 441 137 508 166 q 267 100 345 93 q 134 149 188 106 q 54 259 80 191 q 35 363 36 308 q 52 473 34 419 q 111 579 70 527 q 211 668 152 630 q 377 709 294 720 q 525 608 456 698 q 612 402 594 516 q 604 185 632 290 q 514 -14 576 80 q 366 -175 452 -109 q 340 -195 362 -177 q 310 -218 318 -212 q 282 -236 302 -223 q 248 -255 262 -250 q 215 -267 234 -261 q 176 -276 195 -273 q 158 -270 166 -277 q 148 -254 150 -263 q 154 -236 147 -244 q 170 -226 161 -227 q 201 -219 186 -225 l 227 -211 q 256 -194 237 -206 q 280 -177 275 -181 l 309 -155 q 336 -136 333 -138 q 479 22 420 -70 q 559 218 538 115 m 569 297 q 486 577 577 456 q 372 659 429 652 q 238 626 305 668 q 150 548 186 593 q 100 457 115 504 q 84 364 84 411 q 101 277 84 318 q 163 190 120 223 q 271 150 205 156 q 422 181 337 143 q 555 287 500 218 q 569 297 561 294 m 230 -65 q 258 -43 245 -51 q 300 -34 281 -30 q 330 -75 323 -41 q 316 -120 334 -95 q 281 -161 304 -140 q 241 -190 261 -179 q 223 -197 231 -195 q 201 -195 211 -201 q 159 -148 183 -186 q 134 -91 140 -113 q 143 -30 127 -54 q 187 -9 159 -4 q 230 -65 223 -16 m 431 344 q 461 365 447 356 q 502 370 484 377 q 531 330 526 363 q 518 284 534 309 q 481 245 504 265 q 440 218 461 227 q 422 211 430 212 q 400 213 408 208 q 359 263 380 225 q 337 320 341 298 q 345 380 330 358 q 390 400 362 406 q 431 344 426 393 m 193 -113 q 197 -70 201 -87 q 189 -48 194 -54 q 180 -43 184 -43 q 170 -48 175 -41 q 168 -86 162 -61 q 188 -130 170 -101 q 215 -165 204 -156 q 226 -161 219 -163 q 259 -136 241 -151 q 288 -102 279 -119 q 297 -80 298 -88 q 294 -71 295 -75 q 291 -68 293 -68 q 275 -72 286 -66 q 231 -111 252 -84 q 227 -113 230 -112 q 226 -122 226 -118 q 206 -134 222 -137 q 193 -113 190 -130 m 394 295 q 399 339 402 323 q 391 361 395 355 q 383 368 387 366 q 373 362 377 369 q 370 326 366 350 q 388 279 373 309 q 415 243 404 252 q 426 248 419 244 q 459 270 441 256 q 490 302 479 287 q 498 325 500 318 q 495 334 497 330 q 493 338 494 338 l 493 340 q 476 334 487 341 q 431 297 454 323 l 429 294 q 427 287 427 291 q 407 275 423 272 q 394 295 391 279 "},"l":{"x_min":43.0625,"x_max":106.953125,"ha":108,"o":"m 93 969 q 100 497 93 812 q 106 25 106 181 q 99 7 106 15 q 81 0 91 0 q 64 7 72 0 q 56 25 56 15 q 50 497 56 181 q 43 969 43 812 q 50 986 43 979 q 68 994 58 994 q 85 986 77 994 q 93 969 93 979 "},"8":{"x_min":38.1875,"x_max":548.25,"ha":494,"o":"m 222 552 q 329 716 262 619 q 365 766 340 733 q 406 824 390 800 q 433 873 422 848 q 320 888 379 893 q 213 863 262 883 q 131 798 165 843 q 88 695 97 754 q 88 663 87 683 q 93 640 90 644 q 120 609 105 622 q 174 577 136 597 q 219 555 212 558 l 222 552 m 486 869 q 455 809 473 838 q 406 738 437 779 l 370 688 q 266 527 305 593 q 363 461 320 494 q 447 385 405 429 q 514 286 488 341 q 547 170 540 231 q 493 38 555 90 q 345 -26 431 -13 q 240 -25 290 -34 q 145 15 188 -16 q 90 101 102 48 q 155 429 58 226 q 197 509 173 468 l 194 511 q 161 528 187 515 q 120 550 136 541 q 84 577 104 559 q 51 612 63 594 q 38 661 41 627 q 38 701 37 684 q 96 836 50 780 q 206 915 143 891 q 343 938 270 938 q 477 911 415 937 q 491 897 487 907 q 491 877 494 887 l 486 869 m 240 484 q 200 408 218 444 q 137 112 111 222 q 208 36 151 61 q 338 22 265 12 q 457 72 412 33 q 497 165 502 112 q 420 341 487 266 q 240 484 352 416 m 250 141 q 247 177 245 162 q 262 218 248 204 q 311 222 280 233 q 344 186 330 215 q 358 134 352 165 q 361 86 362 108 q 358 66 361 73 q 345 48 354 52 q 281 38 326 37 q 222 48 243 40 q 173 86 186 61 q 179 134 161 113 q 250 141 204 162 m 272 86 q 236 111 252 104 q 213 116 220 118 q 204 112 206 115 q 204 101 200 108 q 233 79 209 87 q 283 72 250 73 q 326 75 318 70 q 327 87 327 79 q 325 130 329 106 q 313 173 320 155 q 300 191 306 188 q 290 193 294 193 q 286 193 286 194 l 284 193 q 280 176 280 188 q 288 119 279 151 q 290 113 290 116 l 294 108 q 295 85 306 97 q 272 86 283 73 "},"p":{"x_min":45.84375,"x_max":530.671875,"ha":522,"o":"m 122 79 l 109 -86 q 95 -283 100 -213 q 87 -300 95 -293 q 69 -306 79 -306 q 52 -298 59 -306 q 45 -280 45 -290 q 58 -91 50 -208 l 73 97 q 83 283 79 166 q 79 470 86 395 q 77 511 77 486 q 75 552 76 537 q 72 586 75 566 q 63 625 69 607 q 65 643 61 634 q 79 655 69 652 q 99 654 90 658 q 111 638 108 650 q 125 555 122 604 q 273 654 194 648 q 433 568 361 662 q 521 364 498 484 q 509 140 544 244 q 416 17 479 58 q 280 -15 352 -23 q 122 79 180 -5 m 129 473 q 129 194 137 350 l 131 188 q 187 79 144 120 q 285 33 230 38 q 389 59 340 27 q 462 156 438 91 q 472 354 493 245 q 394 537 451 463 q 277 604 338 609 q 137 481 204 598 q 129 473 133 476 m 333 177 q 365 198 350 190 q 406 204 388 211 q 436 163 430 197 q 419 118 438 143 q 381 80 405 98 q 340 54 361 63 q 322 45 330 48 q 300 48 308 43 q 252 113 273 63 q 237 191 233 161 q 263 234 243 223 q 308 230 286 247 q 333 177 330 212 m 295 131 q 299 180 302 163 q 287 204 295 197 q 279 205 281 206 q 270 186 273 202 q 283 126 266 165 q 313 79 298 91 q 325 83 318 80 q 361 106 343 91 q 393 137 381 122 q 402 158 404 151 q 400 169 401 165 l 398 172 l 397 173 q 380 168 391 175 q 334 131 355 155 q 329 127 331 129 q 326 120 327 125 q 306 110 322 105 q 295 131 290 115 "},"4":{"x_min":40.671875,"x_max":723.90625,"ha":664,"o":"m 450 111 q 459 595 450 308 q 375 473 426 543 l 287 361 l 205 250 l 108 115 q 147 112 123 112 q 230 111 172 111 l 450 111 m 512 740 q 520 711 527 729 q 508 684 515 698 q 509 644 508 682 q 509 598 511 607 q 500 109 500 306 q 701 100 612 108 q 718 90 711 98 q 723 72 725 83 q 714 55 722 62 q 695 50 707 48 q 500 59 609 58 q 509 -230 501 -93 q 502 -248 509 -240 q 486 -256 495 -256 q 468 -250 476 -256 q 459 -233 459 -243 q 450 61 451 -94 l 230 61 q 144 62 170 61 q 88 66 109 63 q 66 72 75 69 q 43 93 48 79 q 55 134 34 115 l 63 141 q 68 144 66 143 l 163 277 q 248 388 188 312 l 334 502 q 459 695 422 622 q 462 747 459 725 q 472 763 463 757 q 491 768 480 769 q 507 758 501 766 q 512 740 513 750 m 594 225 q 591 261 590 245 q 607 301 593 287 q 655 305 625 316 q 688 269 675 298 q 702 218 697 248 q 705 169 707 191 q 702 150 705 156 q 690 131 698 136 q 626 122 670 120 q 566 131 587 123 q 518 169 530 144 q 523 218 505 197 q 594 225 548 245 m 616 169 q 581 194 597 187 q 558 200 565 201 q 548 195 551 198 q 548 184 544 191 q 577 162 554 170 q 627 155 594 156 q 670 158 662 154 q 672 170 672 162 q 669 213 673 190 q 658 256 665 238 q 644 275 651 272 q 634 277 638 276 q 630 276 630 277 l 629 276 q 625 259 625 272 q 633 202 623 234 q 634 197 634 200 l 638 191 q 639 168 651 180 q 616 169 627 156 "},"R":{"x_min":44.28125,"x_max":688.65625,"ha":633,"o":"m 95 458 q 286 475 181 450 q 480 586 431 508 q 481 722 520 650 q 337 835 441 794 q 97 852 233 876 q 95 461 91 707 l 95 458 m 322 431 q 297 425 309 429 q 97 406 188 400 q 98 20 101 145 q 90 2 98 9 q 72 -4 83 -4 q 55 3 62 -4 q 48 20 48 11 q 45 459 51 131 q 48 862 41 712 l 45 868 q 48 886 44 877 l 50 901 q 58 918 50 911 q 76 925 66 925 q 100 904 95 923 q 361 879 244 926 q 525 745 477 832 q 522 559 579 648 q 379 451 479 491 q 547 255 452 387 q 686 34 641 123 q 687 15 690 25 q 675 1 684 5 q 655 0 665 -2 q 641 12 645 2 q 494 242 594 105 q 326 427 394 379 q 322 431 325 430 m 383 657 q 413 676 400 669 q 455 680 438 687 q 483 640 479 672 q 466 594 486 619 q 427 558 452 576 q 386 531 406 541 q 366 525 375 526 q 345 527 354 522 q 325 550 334 533 q 308 580 316 562 q 287 637 291 616 q 298 698 281 675 q 344 715 318 722 q 383 657 381 707 m 186 127 q 183 163 181 148 q 198 204 184 190 q 247 208 216 219 q 280 172 266 201 q 294 120 288 151 q 297 72 298 94 q 294 52 297 59 q 281 34 290 38 q 218 25 262 23 q 158 34 179 26 q 109 72 122 47 q 115 120 97 100 q 186 127 140 148 m 344 611 q 351 654 354 637 q 344 676 348 670 q 337 683 340 682 q 326 677 330 684 q 320 643 316 666 q 337 594 323 626 q 352 568 345 579 q 361 558 356 561 q 372 562 365 558 q 408 584 388 570 q 440 615 429 600 q 450 634 451 627 q 447 645 448 641 q 445 650 445 648 l 444 650 q 429 647 440 651 q 383 611 405 636 q 377 607 380 608 q 375 600 376 604 q 354 589 370 584 q 344 611 338 594 m 208 72 q 172 97 188 90 q 150 102 156 104 q 140 98 143 101 q 140 87 136 94 q 169 65 145 73 q 219 58 186 59 q 262 61 254 56 q 263 73 263 65 q 261 116 265 93 q 250 159 256 141 q 236 177 243 175 q 226 179 230 179 q 222 179 222 180 l 220 179 q 216 162 216 175 q 225 105 215 137 q 226 100 226 102 l 230 94 q 231 71 243 83 q 208 72 219 59 "},"o":{"x_min":35.921875,"x_max":528.4375,"ha":517,"o":"m 227 163 q 244 198 236 184 q 277 225 259 220 q 322 205 301 230 q 331 156 336 188 q 318 105 329 134 q 295 62 308 80 q 283 47 288 52 q 263 37 273 37 q 190 70 231 38 q 138 130 151 102 q 138 183 125 163 q 180 195 151 202 q 227 163 206 190 m 413 555 q 348 588 388 577 q 270 594 309 598 q 206 573 231 590 q 115 454 148 534 q 86 284 83 375 q 125 122 87 193 q 231 26 163 52 q 376 55 294 2 q 449 144 423 86 q 477 277 475 202 q 463 416 480 348 q 413 526 447 483 q 413 555 404 540 m 488 497 q 527 275 533 395 q 494 122 525 191 q 404 13 463 52 q 215 -20 300 -52 q 82 96 127 12 q 36 284 37 180 q 70 475 33 384 q 179 615 108 566 q 265 644 213 638 q 361 637 316 650 q 448 591 412 623 q 490 508 484 558 q 488 497 490 502 m 218 108 q 199 146 212 131 q 172 163 186 161 q 165 163 168 165 q 169 144 163 158 q 211 97 177 123 q 261 70 240 75 q 268 80 263 75 q 287 118 277 97 q 298 161 297 143 q 297 183 301 179 q 290 190 293 188 q 286 193 287 193 l 284 193 q 272 180 279 191 q 251 126 258 158 q 250 122 250 125 q 251 116 250 119 q 238 96 254 100 q 218 108 222 93 "},"5":{"x_min":47.203125,"x_max":686.59375,"ha":596,"o":"m 333 550 q 369 555 354 555 q 409 543 395 556 q 418 494 426 526 q 383 458 412 473 q 333 441 363 447 q 284 434 306 434 q 265 436 272 434 q 245 448 251 438 q 233 511 234 466 q 237 570 231 550 q 272 622 248 608 q 320 619 300 637 q 333 550 348 595 m 498 166 q 495 202 494 187 q 511 243 497 229 q 559 247 529 258 q 593 211 579 240 q 607 159 601 190 q 609 111 611 133 q 607 91 609 98 q 594 73 602 77 q 530 63 575 62 q 470 73 491 65 q 422 111 434 86 q 427 159 409 138 q 498 166 452 187 m 206 -22 q 236 -1 222 -8 q 277 6 259 11 q 308 -33 301 0 q 293 -80 312 -54 q 255 -118 280 -98 q 213 -145 234 -136 q 197 -154 204 -151 q 175 -152 183 -158 q 154 -131 165 -147 q 134 -102 144 -119 q 111 -45 115 -66 q 119 13 104 -9 q 163 34 136 38 q 206 -22 200 27 m 662 657 q 644 648 655 650 q 597 645 633 647 q 507 643 561 644 q 413 638 454 641 q 281 630 329 634 q 240 623 255 627 q 233 622 236 623 q 216 525 223 602 q 200 402 205 422 q 175 308 195 383 q 304 369 233 348 q 436 379 370 388 q 553 338 502 370 q 641 256 604 306 q 684 141 677 205 q 672 6 691 77 q 584 -134 647 -73 q 444 -222 520 -194 q 291 -251 368 -251 q 97 -173 163 -250 q 61 62 20 -86 q 72 77 63 72 q 90 79 80 81 q 106 68 101 76 q 108 48 111 59 q 134 -140 76 -73 q 291 -201 187 -200 q 495 -140 398 -201 q 625 20 593 -80 q 635 132 643 77 q 599 227 627 187 q 527 297 570 268 q 430 331 484 326 q 318 322 376 336 q 168 238 227 295 l 165 230 q 129 205 154 202 q 108 220 115 206 q 106 230 106 225 q 106 238 105 233 q 109 255 106 244 q 122 304 113 270 q 152 413 150 406 q 166 530 156 430 q 193 652 175 619 q 212 668 198 662 q 229 672 219 670 q 276 680 247 676 q 411 688 325 684 q 504 693 451 691 q 593 695 558 694 q 641 698 629 697 q 659 693 651 700 q 668 675 666 686 q 662 657 669 665 m 279 525 q 301 561 295 544 q 304 584 306 577 q 300 593 302 591 q 290 593 295 597 q 270 562 277 586 q 266 511 265 545 q 270 469 266 481 q 283 468 276 468 q 326 473 302 468 q 368 487 351 479 q 384 502 383 495 q 385 519 388 516 q 369 522 381 522 q 312 509 347 522 q 308 508 311 508 l 304 502 q 280 501 293 490 q 279 525 268 512 m 520 111 q 485 136 501 129 q 462 141 469 143 q 452 137 455 140 q 452 126 448 133 q 481 104 458 112 q 531 97 498 98 q 575 100 566 95 q 576 112 576 104 q 573 155 577 131 q 562 198 569 180 q 548 216 555 213 q 538 218 543 218 q 534 218 534 219 l 533 218 q 529 201 529 213 q 537 144 527 176 q 538 138 538 141 l 543 133 q 543 110 555 122 q 520 111 531 98 m 169 -69 q 174 -25 177 -41 q 165 -4 170 -9 q 156 1 161 1 q 147 -4 151 2 q 144 -40 138 -16 q 163 -86 147 -55 l 180 -112 q 187 -122 186 -120 q 198 -116 191 -120 q 234 -93 216 -106 q 266 -61 255 -76 q 275 -38 276 -47 q 268 -25 272 -26 q 251 -30 262 -23 q 206 -68 229 -43 l 204 -70 q 202 -77 202 -73 q 182 -89 198 -93 q 169 -69 166 -86 "}}}
